<?xml version="1.0" encoding="UTF-8" standalone="no"?>
<!-- Created with Inkscape (http://www.inkscape.org/) -->

<svg
   width="256"
   height="256"
   viewBox="0 0 256 256"
   version="1.1"
   id="svg1"
   inkscape:version="1.3.2 (091e20e, 2023-11-25, custom)"
   sodipodi:docname="sliders-logo.svg"
   xmlns:inkscape="http://www.inkscape.org/namespaces/inkscape"
   xmlns:sodipodi="http://sodipodi.sourceforge.net/DTD/sodipodi-0.dtd"
   xmlns:xlink="http://www.w3.org/1999/xlink"
   xmlns="http://www.w3.org/2000/svg"
   xmlns:svg="http://www.w3.org/2000/svg">
  <sodipodi:namedview
     id="namedview1"
     pagecolor="#ffffff"
     bordercolor="#000000"
     borderopacity="0.25"
     inkscape:showpageshadow="2"
     inkscape:pageopacity="0.0"
     inkscape:pagecheckerboard="true"
     inkscape:deskcolor="#d1d1d1"
     inkscape:document-units="mm"
     showgrid="true"
     inkscape:zoom="2.955623"
     inkscape:cx="134.15107"
     inkscape:cy="134.82775"
     inkscape:window-width="1785"
     inkscape:window-height="1069"
     inkscape:window-x="634"
     inkscape:window-y="215"
     inkscape:window-maximized="0"
     inkscape:current-layer="layer1">
    <inkscape:grid
       id="grid10"
       units="mm"
       originx="0"
       originy="0"
       spacingx="3.7795276"
       spacingy="3.7795276"
       empcolor="#0099e5"
       empopacity="0.30196078"
       color="#0099e5"
       opacity="0.14901961"
       empspacing="5"
       dotted="false"
       gridanglex="30"
       gridanglez="30"
       visible="true" />
  </sodipodi:namedview>
  <defs
     id="defs1">
    <linearGradient
       id="linearGradient12"
       inkscape:collect="always">
      <stop
         style="stop-color:#020dff;stop-opacity:1;"
         offset="0"
         id="stop12" />
      <stop
         style="stop-color:#ff2919;stop-opacity:1;"
         offset="0.48287672"
         id="stop13" />
    </linearGradient>
    <linearGradient
       id="linearGradient8"
       inkscape:collect="always">
      <stop
         style="stop-color:#ff8d0f;stop-opacity:1;"
         offset="0"
         id="stop8" />
      <stop
         style="stop-color:#ae5c00;stop-opacity:1;"
         offset="1"
         id="stop9" />
    </linearGradient>
    <linearGradient
       inkscape:collect="always"
       xlink:href="#linearGradient8"
       id="linearGradient9"
       x1="125.12391"
       y1="150.89716"
       x2="208.22167"
       y2="150.89716"
       gradientUnits="userSpaceOnUse" />
    <filter
       style="color-interpolation-filters:sRGB;"
       inkscape:label="Drop Shadow"
       id="filter10"
       x="-0.074118025"
       y="-0.083512823"
       width="1.2100011"
       height="1.2366197">
      <feFlood
         result="flood"
         in="SourceGraphic"
         flood-opacity="0.498039"
         flood-color="rgb(0,0,0)"
         id="feFlood9" />
      <feGaussianBlur
         result="blur"
         in="SourceGraphic"
         stdDeviation="3.000000"
         id="feGaussianBlur9" />
      <feOffset
         result="offset"
         in="blur"
         dx="6.000000"
         dy="6.000000"
         id="feOffset9" />
      <feComposite
         result="comp1"
         operator="in"
         in="flood"
         in2="offset"
         id="feComposite9" />
      <feComposite
         result="comp2"
         operator="over"
         in="SourceGraphic"
         in2="comp1"
         id="feComposite10" />
    </filter>
    <linearGradient
       inkscape:collect="always"
       xlink:href="#linearGradient12"
       id="linearGradient13"
       x1="86.932312"
       y1="97.854645"
       x2="189.70979"
       y2="97.854645"
       gradientUnits="userSpaceOnUse"
       gradientTransform="translate(-22.68034,-3.7912983)" />
  </defs>
  <g
     inkscape:label="Layer 1"
     inkscape:groupmode="layer"
     id="layer1">
    <g
       id="g15"
       transform="matrix(1.5238928,0,0,1.5238928,-67.646122,-48.233808)">
      <path
         style="fill:none;fill-opacity:1;stroke:#666666;stroke-width:15.1181;stroke-linecap:round;stroke-dasharray:none;stroke-opacity:1"
         id="path11"
         sodipodi:type="arc"
         sodipodi:cx="128.50394"
         sodipodi:cy="113.38583"
         sodipodi:rx="56.692917"
         sodipodi:ry="56.692917"
         sodipodi:start="2.8173898"
         sodipodi:end="0.32609"
         sodipodi:open="true"
         sodipodi:arc-type="arc"
         d="m 74.76444,131.44555 a 56.692917,56.692917 0 0 1 20.29166,-63.83448 56.692917,56.692917 0 0 1 66.982,0.0632 56.692917,56.692917 0 0 1 20.17116,63.872658" />
      <path
         style="fill:none;fill-opacity:1;stroke:url(#linearGradient13);stroke-width:15.1181;stroke-linecap:round;stroke-dasharray:none;stroke-opacity:1"
         id="path11-0"
         sodipodi:type="arc"
         sodipodi:cx="128.50076"
         sodipodi:cy="113.37406"
         sodipodi:rx="56.692917"
         sodipodi:ry="56.692917"
         sodipodi:start="2.8173898"
         sodipodi:end="5.2902934"
         sodipodi:open="true"
         sodipodi:arc-type="arc"
         d="M 74.761266,131.43378 A 56.692917,56.692917 0 0 1 93.806475,68.536653 56.692917,56.692917 0 0 1 159.47039,65.887551" />
      <circle
         style="fill:#ffc170;fill-opacity:1;stroke:#000000;stroke-width:7.55906;stroke-linecap:round;stroke-dasharray:none;stroke-opacity:1"
         id="path10-3-8"
         cx="166.29922"
         cy="71.811028"
         r="18.897638" />
    </g>
    <g
       id="g9"
       style="display:inline;filter:url(#filter10)"
       transform="matrix(0.5039508,1.4381525,-1.4381525,0.5039508,242.28807,-101.40978)">
      <g
         id="g13"
         transform="translate(-34.935046,-33.065171)">
        <path
           d="M 56.367942,256.54564 Q 47.368476,250.54599 43.013896,240.724 37.207788,228.38602 25.256884,221.70899 q -2.419211,-1.45152 -4.499733,-3.38689 -3.43528,-3.72559 -3.43528,-8.70916 0,-5.03196 3.386896,-8.75755 3.193359,-3.38689 6.483486,-3.9675 3.290128,-0.629 6.386718,0.43545 3.096591,1.01607 5.757723,2.56437 0.387074,0.2903 1.016069,0.72576 0.677379,0.38708 1.451527,0.87092 v -29.32084 q 0,-4.59651 1.741832,-7.74148 1.741832,-3.14498 4.499733,-4.74165 2.757901,-1.59668 5.709339,-1.59668 5.467418,0.43545 9.096235,4.54811 3.628817,4.06428 3.338511,9.5317 v 6.62864 q 2.370827,-0.82254 4.935191,-0.82254 2.564364,-0.0484 4.886807,1.01607 2.370827,1.01607 4.064275,2.95144 2.999822,-1.35476 6.28995,-1.25799 2.661132,0 5.031959,1.20961 2.370828,1.2096 4.015891,3.33851 2.757901,-0.96769 5.660957,-0.9193 5.61257,0.77414 9.48331,4.83842 3.91912,4.06427 4.40296,9.67684 0,4.79004 -0.24192,11.32191 -0.19354,6.53187 -1.20961,13.74112 -1.01606,7.16087 -3.38689,14.07981 -2.37083,6.87056 -6.62864,12.43475 -4.257813,5.61257 -10.934836,8.95108 -6.628639,3.33851 -16.353869,3.33851 h -0.04838 Q 65.367408,262.4969 56.367942,256.54564 Z M 27.530943,204.1939 q -1.016069,0.53223 -1.741832,1.45153 -1.451527,1.64506 -1.451527,3.91912 0,2.22568 1.451527,3.91913 1.596679,1.30637 3.338511,2.41921 13.741121,7.83824 20.321376,22.20836 3.580433,7.88663 10.789682,12.67666 7.257634,4.79004 15.918411,4.9352 h 0.04838 q 8.418856,0 14.07981,-3.19336 5.709339,-3.14498 9.241388,-8.70916 3.532051,-5.56419 5.370651,-12.82182 1.8386,-7.25764 2.4676,-15.48296 0.62899,-8.22532 0.62899,-16.69256 -0.48384,-2.70951 -2.32244,-4.79003 -1.88699,-2.03214 -4.54812,-2.7579 -1.790218,-0.14516 -3.435282,0.58061 v 9.87038 q 0,1.45153 -1.016069,2.46759 -1.016069,1.01607 -2.467595,1.01607 -1.451527,0 -2.51598,-1.01607 -1.016069,-1.01606 -1.016069,-2.46759 v -11.07999 q -0.387074,-0.72576 -1.499911,-1.8386 -1.064453,-1.16122 -2.806285,-1.16122 -1.499911,0 -2.370827,0.2903 -0.870916,0.24193 -1.306374,0.48385 v 6.4351 q 0,1.45153 -1.016069,2.46759 -1.016069,1.01607 -2.467596,1.01607 -1.451527,0 -2.467595,-1.01607 -1.016069,-1.01606 -1.016069,-2.46759 v -7.0641 q -0.580611,-1.25799 -1.693448,-2.03214 -1.306374,-0.87091 -2.903054,-0.82253 -1.596679,-0.14515 -2.999822,0.58061 -1.161221,0.58061 -1.935369,1.5483 v 11.22514 q 0,1.45153 -1.016069,2.46759 -1.016068,1.01607 -2.467595,1.01607 -1.451527,0 -2.467596,-1.01607 -1.016068,-1.01606 -1.016068,-2.46759 v -17.51509 0 -8.61239 q 0.241921,-2.56437 -1.354759,-4.59651 -1.548295,-2.03213 -4.112659,-2.51598 -1.693448,0 -3.338512,1.59668 -1.596679,1.59668 -1.596679,5.51581 v 35.75594 q 0,0.96768 -0.532227,1.79022 -0.483842,0.82253 -1.306374,1.30637 -0.870916,0.43546 -1.8386,0.38707 -0.967685,-0.0484 -1.790217,-0.58061 -0.774147,-0.53222 -2.322443,-1.54829 -1.548295,-1.01607 -3.048206,-1.98376 -1.499911,-0.96768 -2.17729,-1.35475 -2.757901,-1.98376 -6.144797,-2.32245 -1.112837,0.0484 -2.128906,0.58061 z"
           id="text1"
           style="font-size:99.0909px;font-family:'vtks Rude Metal';-inkscape-font-specification:'vtks Rude Metal, Normal';fill:#412500;fill-opacity:1;stroke:none;stroke-width:0;stroke-linecap:round;stroke-dasharray:none"
           transform="rotate(-30.01961)"
           aria-label="👆" />
        <path
           style="font-size:99.0909px;font-family:'vtks Rude Metal';-inkscape-font-specification:'vtks Rude Metal, Normal';fill:url(#linearGradient9);fill-opacity:1;stroke:none;stroke-width:1.88976;stroke-linecap:round"
           d="m 185.945,114.71568 c 0.8863,0.0187 1.77274,0.16567 2.65625,0.4375 1.75522,0.58772 3.22326,1.58173 4.40625,2.98438 2.82408,4.88759 5.42632,9.80984 7.80664,14.76757 2.38031,4.95774 4.25004,9.83803 5.60938,14.64063 1.35933,4.80259 1.94862,9.39917 1.76562,13.78906 -0.183,4.38989 -1.39785,8.44443 -3.64453,12.16406 -2.20262,3.73143 -5.73408,7.00065 -10.59375,9.8086 l -0.043,0.0254 c -5.04772,2.80484 -10.46497,4.03574 -16.25195,3.6914 -5.75906,-0.36047 -10.98641,-2.21986 -15.6836,-5.57812 -8.59123,-6.10023 -18.16087,-9.12107 -28.70703,-9.0625 -1.37661,-0.0614 -2.74223,-0.20424 -4.09961,-0.42578 -1.40269,-0.49339 -2.47641,-1.38128 -3.21875,-2.66602 -0.75846,-1.31267 -0.99232,-2.68738 -0.70312,-4.12109 0.11232,-0.77272 0.37225,-1.48084 0.78125,-2.12695 0.409,-0.64611 0.92651,-1.16926 1.55273,-1.56836 2.068,-0.93413 4.22882,-1.28776 6.48243,-1.0625 0.5201,-0.002 1.37394,0.0237 2.5625,0.082 1.18855,0.0583 2.40019,0.12325 3.63281,0.19336 1.23262,0.0701 2.16078,0.13067 2.78515,0.17968 0.65231,0.0329 1.26512,-0.0997 1.83985,-0.39453 0.57472,-0.29482 1.04095,-0.71206 1.39844,-1.2539 0.31343,-0.55363 0.47358,-1.14899 0.47851,-1.78516 0.0329,-0.65231 -0.1128,-1.25783 -0.43555,-1.81641 l -17.88864,-30.95898 c -1.30715,-2.26226 -1.76607,-4.12002 -1.37695,-5.57422 0.41705,-1.47034 1.11428,-2.48792 2.0918,-3.05273 1.64162,-0.576 3.2488,-0.53552 4.82031,0.12109 1.59944,0.64048 2.757,1.73985 3.47265,3.30078 l 4.3086,7.45703 8.76367,15.16602 c 0.48413,0.83787 1.18788,1.38129 2.11328,1.62891 0.9254,0.24762 1.80666,0.12866 2.64453,-0.35547 0.83787,-0.48413 1.38129,-1.18788 1.62891,-2.11328 0.24762,-0.9254 0.12865,-1.80861 -0.35547,-2.64649 l -5.61523,-9.71875 c 0.12411,-0.81679 0.42374,-1.58614 0.90039,-2.30859 0.56788,-0.88693 1.33852,-1.55515 2.30859,-2.00391 0.90552,-0.56047 1.87927,-0.80724 2.92383,-0.74023 0.90057,0.0757 1.72769,0.3796 2.48242,0.91211 l 3.53515,6.11718 c 0.48413,0.83788 1.18789,1.38129 2.11329,1.62891 0.9254,0.24762 1.8086,0.12866 2.64648,-0.35547 0.83787,-0.48413 1.37933,-1.18983 1.62695,-2.11523 0.24762,-0.9254 0.13061,-1.80666 -0.35351,-2.64453 l -3.22071,-5.57227 c 0.17068,-0.28488 0.4686,-0.64214 0.89063,-1.07227 0.4059,-0.45804 1.04044,-0.93723 1.90625,-1.4375 1.00545,-0.58095 2.00997,-0.7137 3.01172,-0.39843 1.01353,0.2712 1.75326,0.55196 2.21875,0.84179 l 5.54297,9.59375 c 0.48413,0.83788 1.18788,1.38129 2.11328,1.62891 0.95332,0.23148 1.84962,0.10522 2.6875,-0.37891 0.83787,-0.48413 1.38129,-1.18983 1.6289,-2.11523 0.24762,-0.9254 0.12866,-1.80666 -0.35546,-2.64453 l -4.9375,-8.54688 c 0.70752,-0.96762 1.6018,-1.7074 2.68359,-2.2207 0.88908,-0.23432 1.77581,-0.34297 2.66211,-0.32422 z"
           id="path2" />
      </g>
    </g>
  </g>
</svg>
