<?xml version="1.0" encoding="UTF-8" standalone="no"?>
<!-- Created with Inkscape (http://www.inkscape.org/) -->

<svg
   version="1.1"
   id="svg1"
   width="1320"
   height="1320"
   viewBox="0 0 1320 1320"
   sodipodi:docname="sliders-hero.svg"
   inkscape:version="1.3.2 (091e20e, 2023-11-25, custom)"
   inkscape:export-filename="sliders-hero.png"
   inkscape:export-xdpi="58.18182"
   inkscape:export-ydpi="58.18182"
   xmlns:inkscape="http://www.inkscape.org/namespaces/inkscape"
   xmlns:sodipodi="http://sodipodi.sourceforge.net/DTD/sodipodi-0.dtd"
   xmlns="http://www.w3.org/2000/svg"
   xmlns:svg="http://www.w3.org/2000/svg">
  <defs
     id="defs1">
    <inkscape:path-effect
       effect="roughen"
       id="path-effect16"
       is_visible="true"
       lpeversion="1.2"
       global_randomize="1;1"
       displace_x="0.24368;1"
       displace_y="0.0392377;1"
       method="size"
       max_segment_size="0.117713"
       segments="2"
       handles="along"
       shift_nodes="true"
       fixed_displacement="false"
       spray_tool_friendly="false" />
    <inkscape:path-effect
       effect="taper_stroke"
       start_shape="center | center"
       end_shape="center | center"
       id="path-effect15"
       is_visible="true"
       lpeversion="1"
       stroke_width="14.138"
       subpath="1"
       attach_start="0.2"
       end_offset="0.038241218"
       start_smoothing="0.5"
       end_smoothing="0.5"
       jointype="extrapolated"
       miter_limit="100" />
    <inkscape:path-effect
       effect="taper_stroke"
       start_shape="center | center"
       end_shape="center | center"
       id="path-effect14"
       is_visible="true"
       lpeversion="1"
       stroke_width="14.038"
       subpath="1"
       attach_start="0.55230096"
       end_offset="0.47655621"
       start_smoothing="0.5"
       end_smoothing="0.5"
       jointype="extrapolated"
       miter_limit="100" />
    <inkscape:path-effect
       effect="taper_stroke"
       start_shape="center | center"
       end_shape="center | center"
       id="path-effect13"
       is_visible="true"
       lpeversion="1"
       stroke_width="14.138"
       subpath="1"
       attach_start="0.32978908"
       end_offset="0.10956636"
       start_smoothing="0.5"
       end_smoothing="0.5"
       jointype="extrapolated"
       miter_limit="100" />
    <inkscape:path-effect
       effect="taper_stroke"
       start_shape="center | center"
       end_shape="center | center"
       id="path-effect12"
       is_visible="true"
       lpeversion="1"
       stroke_width="14.138"
       subpath="1"
       attach_start="0.2"
       end_offset="0.35032312"
       start_smoothing="0.5"
       end_smoothing="0.5"
       jointype="extrapolated"
       miter_limit="100" />
    <inkscape:path-effect
       effect="taper_stroke"
       start_shape="center | center"
       end_shape="center | center"
       id="path-effect11"
       is_visible="true"
       lpeversion="1"
       stroke_width="14.138"
       subpath="1"
       attach_start="0.46424361"
       end_offset="0.2"
       start_smoothing="0.5"
       end_smoothing="0.5"
       jointype="extrapolated"
       miter_limit="100" />
    <inkscape:path-effect
       effect="taper_stroke"
       start_shape="center | center"
       end_shape="center | center"
       id="path-effect10"
       is_visible="true"
       lpeversion="1"
       stroke_width="14.138"
       subpath="1"
       attach_start="0.58113818"
       end_offset="0"
       start_smoothing="0.5"
       end_smoothing="0.5"
       jointype="extrapolated"
       miter_limit="100" />
    <inkscape:path-effect
       effect="taper_stroke"
       start_shape="center | center"
       end_shape="center | center"
       id="path-effect9"
       is_visible="true"
       lpeversion="1"
       stroke_width="14.138"
       subpath="1"
       attach_start="0.49104883"
       end_offset="0.001305814"
       start_smoothing="0.5"
       end_smoothing="0.5"
       jointype="extrapolated"
       miter_limit="100" />
    <inkscape:path-effect
       effect="taper_stroke"
       start_shape="center | center"
       end_shape="center | center"
       id="path-effect8"
       is_visible="true"
       lpeversion="1"
       stroke_width="14.138"
       subpath="1"
       attach_start="0.2"
       end_offset="0.2"
       start_smoothing="0.5"
       end_smoothing="0.5"
       jointype="extrapolated"
       miter_limit="100" />
    <inkscape:path-effect
       effect="taper_stroke"
       start_shape="center | center | center | center"
       end_shape="center | center | center | center"
       id="path-effect12-7"
       is_visible="true"
       lpeversion="1"
       stroke_width="14.138"
       subpath="1"
       attach_start="0.2 | 0.2 | 0.2 | 0.2"
       end_offset="0.2 | 0.2 | 0.2 | 0.2"
       start_smoothing="0.5 | 0.5 | 0.5 | 0.5"
       end_smoothing="0.5 | 0.5 | 0.5 | 0.5"
       jointype="extrapolated"
       miter_limit="100" />
    <inkscape:path-effect
       effect="taper_stroke"
       start_shape="center | center"
       end_shape="center | center"
       id="path-effect8-7"
       is_visible="true"
       lpeversion="1"
       stroke_width="14.138"
       subpath="1"
       attach_start="0.2"
       end_offset="0.2"
       start_smoothing="0.5"
       end_smoothing="0.5"
       jointype="extrapolated"
       miter_limit="100" />
    <inkscape:path-effect
       effect="taper_stroke"
       start_shape="center | center"
       end_shape="center | center"
       id="path-effect9-8"
       is_visible="true"
       lpeversion="1"
       stroke_width="14.138"
       subpath="1"
       attach_start="0.49104883"
       end_offset="0.001305814"
       start_smoothing="0.5"
       end_smoothing="0.5"
       jointype="extrapolated"
       miter_limit="100" />
    <inkscape:path-effect
       effect="taper_stroke"
       start_shape="center | center"
       end_shape="center | center"
       id="path-effect11-7"
       is_visible="true"
       lpeversion="1"
       stroke_width="14.138"
       subpath="1"
       attach_start="0.46424361"
       end_offset="0.2"
       start_smoothing="0.5"
       end_smoothing="0.5"
       jointype="extrapolated"
       miter_limit="100" />
    <inkscape:path-effect
       effect="fill_between_many"
       method="originald"
       linkedpaths="#g17,0,1"
       id="path-effect17"
       is_visible="true"
       lpeversion="0"
       join="true"
       close="true"
       autoreverse="true" />
    <filter
       style="color-interpolation-filters:sRGB"
       inkscape:label="Drop Shadow"
       id="filter33"
       x="-0.038048582"
       y="-0.032400292"
       width="1.0833583"
       height="1.0709838">
      <feFlood
         result="flood"
         in="SourceGraphic"
         flood-opacity="0.498039"
         flood-color="rgb(0,0,0)"
         id="feFlood32" />
      <feGaussianBlur
         result="blur"
         in="SourceGraphic"
         stdDeviation="13.100000"
         id="feGaussianBlur32" />
      <feOffset
         result="offset"
         in="blur"
         dx="6.000000"
         dy="6.000000"
         id="feOffset32" />
      <feComposite
         result="comp1"
         operator="in"
         in="flood"
         in2="offset"
         id="feComposite32" />
      <feComposite
         result="comp2"
         operator="atop"
         in="comp1"
         in2="comp1"
         id="feComposite33" />
    </filter>
    <filter
       style="color-interpolation-filters:sRGB"
       inkscape:label="Drop Shadow"
       id="filter33-4"
       x="-0.03804858"
       y="-0.032400291"
       width="1.0833583"
       height="1.0709838">
      <feFlood
         result="flood"
         in="SourceGraphic"
         flood-opacity="0.498039"
         flood-color="rgb(0,0,0)"
         id="feFlood32-6" />
      <feGaussianBlur
         result="blur"
         in="SourceGraphic"
         stdDeviation="13.100000"
         id="feGaussianBlur32-0" />
      <feOffset
         result="offset"
         in="blur"
         dx="6.000000"
         dy="6.000000"
         id="feOffset32-1" />
      <feComposite
         result="comp1"
         operator="in"
         in="flood"
         in2="offset"
         id="feComposite32-9" />
      <feComposite
         result="comp2"
         operator="atop"
         in="comp1"
         in2="comp1"
         id="feComposite33-4" />
    </filter>
  </defs>
  <sodipodi:namedview
     id="namedview1"
     pagecolor="#505050"
     bordercolor="#ffffff"
     borderopacity="1"
     inkscape:showpageshadow="0"
     inkscape:pageopacity="0"
     inkscape:pagecheckerboard="1"
     inkscape:deskcolor="#505050"
     inkscape:zoom="0.32603627"
     inkscape:cx="533.68296"
     inkscape:cy="703.90942"
     inkscape:window-width="3440"
     inkscape:window-height="1369"
     inkscape:window-x="-8"
     inkscape:window-y="-8"
     inkscape:window-maximized="1"
     inkscape:current-layer="layer1" />
  <g
     inkscape:groupmode="layer"
     id="layer1"
     inkscape:label="hand"
     style="display:inline"
     transform="translate(-276.89111,-187.726)">
    <g
       id="g67"
       inkscape:label="panel"
       transform="translate(13.012788,15.181586)">
      <rect
         style="fill:#cdcdcd;fill-opacity:1;stroke:#000000;stroke-width:11.8515;stroke-linecap:round;stroke-dasharray:none;stroke-opacity:1"
         id="rect18"
         width="1036.7759"
         height="633.09766"
         x="402.10074"
         y="193.65175"
         rx="23.973513"
         ry="10.068917"
         inkscape:label="panel" />
      <g
         transform="matrix(0.03125496,0,0,-0.03125496,922.32862,576.66955)"
         fill="#000000"
         stroke="none"
         id="g60"
         style="stroke-width:0.99501;stroke-dasharray:none"
         inkscape:label="dial">
        <g
           id="g20"
           transform="translate(-12976.027,-3885.8692)">
          <path
             style="display:inline;fill:#ffa733;fill-opacity:1;stroke:#000000;stroke-width:12.256;stroke-linecap:round;stroke-dasharray:none;stroke-opacity:1"
             id="path19"
             sodipodi:type="arc"
             sodipodi:cx="1082.3148"
             sodipodi:cy="444.81418"
             sodipodi:rx="130.86336"
             sodipodi:ry="132.39697"
             sodipodi:start="5.2359878"
             sodipodi:end="5.2334328"
             sodipodi:open="true"
             sodipodi:arc-type="arc"
             d="m 1147.7465,330.15504 a 130.86336,132.39697 0 0 1 47.9411,180.78438 130.86336,132.39697 0 0 1 -178.6596,48.61837 130.86336,132.39697 0 0 1 -48.16935,-180.72227 130.86336,132.39697 0 0 1 178.59805,-48.84924"
             transform="matrix(31.994922,0,0,-31.994922,-28228.573,20631.79)" />
          <path
             d="m 6234,12593 c 3,-115 9,-517 12,-895 l 7,-688 h 84 85 l -6,88 c -3,48 -8,377 -11,732 -3,355 -8,718 -11,808 l -7,162 h -80 -80 z"
             id="path1-3"
             style="stroke-width:0.99501;stroke-dasharray:none" />
          <path
             d="m 9057,11302 c -218,-394 -413,-745 -432,-779 l -34,-62 69,-40 69,-40 19,32 c 18,29 844,1514 850,1527 2,5 -129,80 -139,80 -2,0 -183,-323 -402,-718 z"
             id="path2-3"
             style="stroke-width:0.99501;stroke-dasharray:none" />
          <path
             d="m 3115,11890 c -34,-21 -59,-44 -57,-51 5,-22 915,-1509 923,-1509 12,0 129,72 129,79 0,11 -920,1516 -928,1518 -4,1 -34,-16 -67,-37 z"
             id="path3-6"
             style="stroke-width:0.99501;stroke-dasharray:none" />
          <path
             d="m 6826,11868 c -9,-38 -95,-852 -92,-856 7,-7 148,-23 153,-18 3,3 25,187 49,408 24,222 45,417 48,435 5,36 10,33 -106,48 -44,6 -48,4 -52,-17 z"
             id="path4-1"
             style="stroke-width:0.99501;stroke-dasharray:none" />
          <path
             d="m 5718,11843 c -27,-3 -38,-9 -38,-21 0,-27 111,-846 115,-851 5,-4 145,16 151,22 3,3 -20,193 -51,424 -30,230 -55,422 -55,426 0,7 -53,7 -122,0 z"
             id="path5-7"
             style="stroke-width:0.99501;stroke-dasharray:none" />
          <path
             d="m 7396,11781 c -14,-43 -184,-826 -181,-829 4,-5 149,-42 151,-39 7,7 185,830 182,839 -2,6 -36,19 -76,28 -65,16 -72,16 -76,1 z"
             id="path6-6"
             style="stroke-width:0.99501;stroke-dasharray:none" />
          <path
             d="m 5168,11753 c -32,-8 -58,-19 -58,-23 0,-15 190,-834 195,-838 5,-5 130,19 144,28 6,3 -29,175 -87,428 -109,475 -89,433 -194,405 z"
             id="path7-6"
             style="stroke-width:0.99501;stroke-dasharray:none" />
          <path
             d="m 7955,11659 c -15,-42 -254,-798 -257,-814 -2,-15 10,-23 71,-42 41,-13 75,-22 76,-21 6,8 267,839 264,842 -2,1 -31,10 -64,20 -33,10 -66,21 -72,23 -7,3 -15,-1 -18,-8 z"
             id="path8-9"
             style="stroke-width:0.99501;stroke-dasharray:none" />
          <path
             d="m 4628,11593 c -38,-14 -68,-29 -68,-33 0,-8 290,-803 294,-808 4,-3 137,46 144,53 6,6 -289,815 -297,814 -3,0 -36,-12 -73,-26 z"
             id="path9"
             style="stroke-width:0.99501;stroke-dasharray:none" />
          <path
             d="m 8322,11073 -171,-398 71,-33 c 39,-18 74,-29 78,-25 5,6 316,726 337,780 3,8 -17,23 -62,43 -37,16 -70,30 -74,30 -4,0 -85,-179 -179,-397 z"
             id="path10"
             style="stroke-width:0.99501;stroke-dasharray:none" />
          <path
             d="m 4100,11378 c -36,-16 -66,-31 -68,-33 -2,-2 366,-776 372,-782 1,-2 35,13 74,32 l 72,34 -54,113 c -166,352 -320,668 -325,667 -3,0 -35,-14 -71,-31 z"
             id="path11"
             style="stroke-width:0.99501;stroke-dasharray:none" />
          <path
             d="m 9253,10568 -251,-352 59,-43 c 32,-24 63,-43 68,-43 4,0 121,157 259,350 l 251,349 -64,46 c -35,25 -65,45 -67,45 -2,-1 -116,-159 -255,-352 z"
             id="path12"
             style="stroke-width:0.99501;stroke-dasharray:none" />
          <path
             d="m 3110,10789 c -30,-22 -54,-46 -54,-54 1,-13 511,-685 520,-685 7,0 124,90 124,95 0,7 -521,680 -528,683 -5,1 -32,-16 -62,-39 z"
             id="path13"
             style="stroke-width:0.99501;stroke-dasharray:none" />
          <path
             d="m 9672,10248 -282,-323 57,-53 c 31,-29 60,-51 63,-50 4,2 134,148 289,326 l 281,322 -41,37 c -49,44 -72,62 -80,63 -3,0 -132,-145 -287,-322 z"
             id="path14"
             style="stroke-width:0.99501;stroke-dasharray:none" />
          <path
             d="m 2661,10416 -53,-53 304,-316 303,-316 58,57 57,56 -73,76 c -40,41 -176,182 -301,313 -126,130 -232,237 -235,237 -4,0 -31,-24 -60,-54 z"
             id="path15-3"
             style="stroke-width:0.99501;stroke-dasharray:none" />
          <path
             d="m 10060,9890 c -173,-159 -316,-295 -318,-302 -1,-7 21,-36 50,-65 l 53,-51 315,290 c 173,159 315,293 315,297 0,4 -22,33 -50,64 l -50,56 z"
             id="path16"
             style="stroke-width:0.99501;stroke-dasharray:none" />
          <path
             d="m 2269,10009 c -30,-35 -48,-64 -43,-69 27,-26 650,-550 654,-550 7,0 103,120 99,124 -5,4 -360,304 -531,449 l -126,107 z"
             id="path17"
             style="stroke-width:0.99501;stroke-dasharray:none" />
          <path
             d="m 10540,9593 c -107,-80 -262,-194 -343,-255 l -148,-109 31,-42 c 17,-23 38,-52 48,-64 l 17,-23 345,255 c 190,140 346,259 348,265 5,13 -78,120 -92,119 -6,0 -99,-66 -206,-146 z"
             id="path18-6"
             style="stroke-width:0.99501;stroke-dasharray:none" />
          <path
             d="m 11100,9284 c -415,-244 -758,-448 -763,-453 -7,-7 38,-99 69,-139 3,-5 1504,876 1523,894 11,10 7,23 -25,78 -22,36 -41,66 -44,65 -3,0 -345,-200 -760,-445 z"
             id="path19-9"
             style="stroke-width:0.99501;stroke-dasharray:none" />
          <path
             d="m 1912,9553 c -24,-36 -40,-69 -35,-73 11,-11 713,-470 717,-470 6,0 88,131 84,134 -2,2 -641,421 -703,462 -18,12 -23,8 -63,-53 z"
             id="path20"
             style="stroke-width:0.99501;stroke-dasharray:none" />
          <path
             d="m 816,9534 c -21,-36 -34,-70 -29,-74 11,-11 1534,-870 1542,-870 3,0 23,31 43,68 l 37,68 -770,435 c -424,239 -773,435 -777,437 -4,1 -25,-28 -46,-64 z"
             id="path21"
             style="stroke-width:0.99501;stroke-dasharray:none" />
          <path
             d="m 10990,8600 c -195,-93 -371,-177 -392,-187 l -36,-18 36,-71 37,-71 389,183 c 214,101 392,186 394,189 7,6 -59,145 -67,144 -3,0 -166,-77 -361,-169 z"
             id="path22"
             style="stroke-width:0.99501;stroke-dasharray:none" />
          <path
             d="m 1374,8595 c -7,-19 -21,-51 -29,-72 -8,-20 -14,-37 -13,-38 2,-1 147,-62 323,-135 176,-73 354,-148 396,-166 l 77,-32 31,71 c 17,39 28,74 24,78 -10,9 -772,329 -784,329 -6,0 -17,-16 -25,-35 z"
             id="path23"
             style="stroke-width:0.99501;stroke-dasharray:none" />
          <path
             d="m 11153,8097 c -215,-73 -395,-135 -398,-139 -6,-5 30,-134 41,-147 7,-8 824,272 824,283 0,7 -9,40 -21,74 -15,44 -26,62 -37,61 -10,0 -193,-60 -409,-132 z"
             id="path24"
             style="stroke-width:0.99501;stroke-dasharray:none" />
          <path
             d="m 1161,8025 c -13,-42 -21,-78 -20,-80 10,-8 813,-245 822,-242 10,3 60,147 51,147 -4,0 -804,241 -820,247 -6,2 -20,-29 -33,-72 z"
             id="path25"
             style="stroke-width:0.99501;stroke-dasharray:none" />
          <path
             d="m 11300,7589 c -217,-49 -400,-91 -406,-93 -8,-3 -7,-24 5,-75 9,-38 19,-72 22,-75 6,-7 830,173 841,183 4,3 0,39 -9,79 -14,62 -19,72 -37,71 -12,0 -199,-41 -416,-90 z"
             id="path26"
             style="stroke-width:0.99501;stroke-dasharray:none" />
          <path
             d="m 1035,7536 c -9,-27 -33,-146 -29,-146 1,0 65,-13 141,-30 410,-88 706,-150 708,-148 3,5 34,153 32,154 -2,2 -143,32 -695,149 -107,23 -155,29 -157,21 z"
             id="path27"
             style="stroke-width:0.99501;stroke-dasharray:none" />
          <path
             d="m 11391,7069 c -222,-27 -405,-50 -407,-52 -6,-5 8,-134 15,-146 5,-7 141,5 431,40 233,27 425,51 426,52 1,1 -3,37 -9,80 -8,69 -11,77 -31,76 -11,-1 -203,-23 -425,-50 z"
             id="path28"
             style="stroke-width:0.99501;stroke-dasharray:none" />
          <path
             d="m 945,6966 c -2,-6 -6,-41 -9,-79 -5,-50 -3,-68 6,-71 7,-2 112,-13 233,-25 121,-12 309,-31 418,-43 109,-11 199,-19 201,-17 2,2 7,38 11,80 l 6,76 -113,12 c -549,59 -750,77 -753,67 z"
             id="path29"
             style="stroke-width:0.99501;stroke-dasharray:none" />
          <path
             d="m 11725,6549 c -297,-3 -577,-7 -622,-8 l -83,-1 v -80 -81 l 518,6 c 284,3 685,8 890,11 l 372,6 v 79 79 l -267,-2 c -148,-1 -511,-5 -808,-9 z"
             id="path30"
             style="stroke-width:0.99501;stroke-dasharray:none" />
          <path
             d="M 872,6403 0,6400 v -80 -80 h 890 890 v 85 c 0,75 -2,85 -17,83 -10,-2 -411,-4 -891,-5 z"
             id="path31"
             style="stroke-width:0.99501;stroke-dasharray:none" />
          <path
             d="m 11005,6050 c -1,-3 -4,-39 -6,-80 l -4,-75 400,-37 c 220,-20 414,-37 432,-37 l 31,-1 7,75 c 4,42 6,77 4,79 -7,7 -860,82 -864,76 z"
             id="path32"
             style="stroke-width:0.99501;stroke-dasharray:none" />
          <path
             d="m 1370,5885 -425,-50 4,-40 c 6,-81 16,-120 31,-118 8,1 201,23 428,50 l 413,48 -7,65 c -4,36 -9,72 -13,80 -5,13 -60,9 -431,-35 z"
             id="path33"
             style="stroke-width:0.99501;stroke-dasharray:none" />
          <path
             d="m 10928,5495 c -15,-74 -15,-75 6,-80 33,-8 820,-165 826,-165 7,0 35,149 29,154 -5,5 -810,166 -830,166 -12,0 -20,-19 -31,-75 z"
             id="path34"
             style="stroke-width:0.99501;stroke-dasharray:none" />
          <path
             d="m 1461,5353 c -228,-51 -416,-95 -419,-98 -3,-3 2,-39 12,-81 15,-61 21,-74 34,-70 10,3 190,44 402,91 212,47 393,88 403,91 16,5 17,12 12,47 -4,23 -13,57 -19,77 l -11,36 z"
             id="path35"
             style="stroke-width:0.99501;stroke-dasharray:none" />
          <path
             d="m 10811,5049 c -11,-35 -21,-70 -21,-79 0,-11 36,-27 133,-57 542,-169 690,-214 695,-209 3,4 15,38 28,76 l 22,70 -142,44 c -77,25 -260,82 -406,127 -146,45 -270,84 -276,86 -7,2 -21,-22 -33,-58 z"
             id="path36"
             style="stroke-width:0.99501;stroke-dasharray:none" />
          <path
             d="m 1590,4853 c -223,-75 -406,-137 -407,-138 -2,-1 9,-36 23,-77 l 25,-76 407,135 c 224,75 409,137 411,139 6,6 -41,154 -48,153 -3,0 -188,-62 -411,-136 z"
             id="path37"
             style="stroke-width:0.99501;stroke-dasharray:none" />
          <path
             d="m 10642,4576 -30,-75 71,-30 c 40,-16 191,-79 337,-139 261,-108 392,-162 395,-162 9,0 55,143 49,149 -7,6 -697,296 -778,327 -9,3 -23,-19 -44,-70 z"
             id="path38"
             style="stroke-width:0.99501;stroke-dasharray:none" />
          <path
             d="m 1865,4384 c -170,-80 -347,-162 -393,-184 l -82,-39 32,-68 c 18,-37 34,-70 35,-72 3,-4 765,348 777,360 8,7 -34,117 -54,140 -3,4 -144,-58 -315,-137 z"
             id="path39"
             style="stroke-width:0.99501;stroke-dasharray:none" />
          <path
             d="m 10428,4141 -38,-70 88,-49 c 348,-198 1465,-822 1467,-820 24,31 74,133 68,139 -10,9 -1512,856 -1533,863 -11,4 -26,-15 -52,-63 z"
             id="path40"
             style="stroke-width:0.99501;stroke-dasharray:none" />
          <path
             d="m 1625,3659 c -412,-247 -754,-450 -759,-452 -10,-3 64,-137 77,-137 7,0 1505,886 1519,899 7,7 -69,142 -80,140 -4,-1 -344,-203 -757,-450 z"
             id="path41"
             style="stroke-width:0.99501;stroke-dasharray:none" />
          <path
             d="m 10161,3731 c -23,-33 -41,-62 -41,-65 0,-2 120,-87 268,-187 147,-100 308,-211 358,-246 l 92,-63 42,66 c 37,55 41,67 29,78 -21,20 -674,465 -692,472 -11,4 -27,-13 -56,-55 z"
             id="path42"
             style="stroke-width:0.99501;stroke-dasharray:none" />
          <path
             d="m 2320,3453 c -179,-135 -333,-251 -344,-258 -18,-13 -16,-17 25,-74 24,-33 48,-61 53,-61 7,0 656,480 690,511 8,7 -79,130 -92,128 -4,0 -153,-111 -332,-246 z"
             id="path43"
             style="stroke-width:0.99501;stroke-dasharray:none" />
          <path
             d="m 4612.1099,8610.2036 c -302.6669,315.5283 -562.7806,587.0218 -578.8704,606.7105 -29.3214,31.8616 -36.6067,27.067 -137.5403,-65.4615 -58.3748,-54.079 -107.0669,-107.0057 -105.915,-116.6882 1.6128,-13.5555 1080.6545,-1159.7474 1148.5191,-1218.4458 15.3987,-13.8792 233.5425,182.9341 226.6743,207.6477 -0.9215,7.746 -250.2008,270.709 -552.8677,586.2373 z"
             id="path43-7"
             style="stroke-width:1.94042;stroke-dasharray:none" />
          <path
             d="m 9872,3355 -50,-57 325,-289 326,-289 53,57 c 29,32 53,60 53,63 -1,8 -633,563 -645,567 -7,2 -34,-21 -62,-52 z"
             id="path44"
             style="stroke-width:0.99501;stroke-dasharray:none" />
          <path
             d="m 2640,3030 c -168,-159 -306,-295 -308,-302 -1,-7 21,-36 50,-65 l 53,-51 290,274 c 160,151 301,286 315,299 l 24,25 -54,55 c -30,30 -57,55 -60,55 -3,0 -142,-131 -310,-290 z"
             id="path45"
             style="stroke-width:0.99501;stroke-dasharray:none" />
          <path
             d="m 9525,2998 -55,-53 241,-260 c 133,-143 266,-286 296,-318 l 55,-58 58,55 57,55 -289,313 c -159,172 -294,315 -299,316 -5,2 -34,-20 -64,-50 z"
             id="path46"
             style="stroke-width:0.99501;stroke-dasharray:none" />
          <path
             d="m 3007,2657 -287,-322 56,-52 c 30,-29 58,-53 62,-53 7,0 565,625 570,639 1,5 -24,31 -56,59 l -58,51 z"
             id="path47"
             style="stroke-width:0.99501;stroke-dasharray:none" />
          <path
             d="m 9168,2707 c -32,-23 -58,-46 -58,-50 0,-8 325,-452 468,-640 l 43,-57 42,30 c 23,17 52,38 65,48 l 22,17 -255,345 c -140,190 -259,346 -263,347 -4,1 -33,-17 -64,-40 z"
             id="path48"
             style="stroke-width:0.99501;stroke-dasharray:none" />
          <path
             d="m 3416,2335 c -135,-189 -247,-349 -248,-355 -2,-6 25,-31 59,-56 l 62,-45 35,48 c 244,341 464,657 461,663 -2,3 -31,25 -64,48 l -59,42 z"
             id="path49"
             style="stroke-width:0.99501;stroke-dasharray:none" />
          <path
             d="m 8753,2431 c -39,-22 -61,-41 -58,-49 7,-19 886,-1494 899,-1509 9,-10 26,-3 79,28 65,39 67,42 54,62 -7,12 -213,356 -457,765 -243,408 -445,742 -449,741 -3,-1 -34,-17 -68,-38 z"
             id="path50"
             style="stroke-width:0.99501;stroke-dasharray:none" />
          <path
             d="M 4046,2367 C 3988,2267 3220,857 3220,851 c 0,-3 31,-22 68,-42 l 69,-36 424,775 c 233,426 425,778 426,781 2,3 -29,23 -67,43 l -69,38 z"
             id="path51"
             style="stroke-width:0.99501;stroke-dasharray:none" />
          <path
             d="m 8335,2208 c -39,-18 -71,-33 -73,-34 -2,-1 354,-778 363,-792 2,-3 137,56 143,63 4,3 -300,669 -347,762 l -16,33 z"
             id="path52"
             style="stroke-width:0.99501;stroke-dasharray:none" />
          <path
             d="m 4335,1784 c -92,-217 -166,-396 -164,-398 17,-11 141,-57 145,-54 6,7 334,780 334,788 0,7 -124,60 -139,60 -4,0 -83,-178 -176,-396 z"
             id="path53"
             style="stroke-width:0.99501;stroke-dasharray:none" />
          <path
             d="m 7880,2029 c -30,-10 -60,-21 -67,-24 -8,-3 13,-77 68,-237 45,-128 108,-312 141,-408 33,-96 62,-177 64,-179 2,-2 37,9 77,24 l 75,27 -58,166 c -32,92 -96,276 -142,409 -46,134 -87,243 -93,242 -5,0 -35,-9 -65,-20 z"
             id="path54"
             style="stroke-width:0.99501;stroke-dasharray:none" />
          <path
             d="m 4927,1923 c -205,-674 -224,-738 -213,-744 23,-12 136,-42 141,-38 2,3 59,184 125,402 67,219 123,404 126,412 4,10 -14,19 -64,34 -38,12 -74,21 -79,21 -5,0 -22,-39 -36,-87 z"
             id="path55"
             style="stroke-width:0.99501;stroke-dasharray:none" />
          <path
             d="m 7402,1893 c -39,-9 -62,-19 -59,-27 2,-6 46,-191 96,-411 51,-220 94,-405 96,-412 3,-8 23,-6 75,7 40,10 74,21 77,24 4,4 -160,737 -183,819 -6,20 -17,20 -102,0 z"
             id="path56"
             style="stroke-width:0.99501;stroke-dasharray:none" />
          <path
             d="m 5410,1881 c 0,-11 -145,-785 -155,-828 -5,-19 1,-22 73,-35 75,-14 77,-14 84,6 7,19 158,814 158,829 0,3 -26,11 -57,17 -32,6 -68,14 -80,17 -14,3 -23,0 -23,-6 z"
             id="path57"
             style="stroke-width:0.99501;stroke-dasharray:none" />
          <path
             d="m 6918,1811 c -26,-4 -49,-9 -52,-12 -6,-6 98,-846 105,-852 2,-3 39,0 82,6 l 77,9 -5,32 c -3,17 -25,195 -50,396 -25,201 -47,380 -50,398 -6,35 -11,36 -107,23 z"
             id="path58"
             style="stroke-width:0.99501;stroke-dasharray:none" />
          <path
             d="m 5900,1793 c 0,-10 -18,-204 -40,-432 -22,-228 -39,-416 -37,-417 1,-1 36,-4 79,-8 l 76,-7 6,38 c 11,72 79,824 75,827 -2,2 -39,7 -81,11 -72,6 -78,5 -78,-12 z"
             id="path59"
             style="stroke-width:0.99501;stroke-dasharray:none" />
          <path
             d="m 6380,1552 c 0,-126 3,-526 7,-890 l 6,-662 h 79 78 v 258 c 0,142 -3,543 -7,890 l -6,632 h -79 -78 z"
             id="path60"
             style="stroke-width:0.99501;stroke-dasharray:none" />
        </g>
      </g>
      <g
         id="g65"
         inkscape:label="sliders"
         style="display:inline"
         transform="translate(23.856777,-49.882353)">
        <g
           id="g63"
           transform="matrix(1.23172,0,0,1.23172,-312.57652,-12.367147)"
           inkscape:label="slider">
          <path
             style="fill:#ffffff;fill-opacity:1;stroke:#000000;stroke-width:12.256;stroke-linecap:round;stroke-dasharray:none;stroke-opacity:1"
             d="M 1167.4485,309.6251 V 568.79645"
             id="path61" />
          <path
             style="fill:#ffa733;fill-opacity:1;stroke:#000000;stroke-width:10;stroke-linecap:round;stroke-dasharray:none;stroke-opacity:1"
             id="path62"
             sodipodi:type="arc"
             sodipodi:cx="1167.4485"
             sodipodi:cy="378.48444"
             sodipodi:rx="22.772379"
             sodipodi:ry="22.772379"
             sodipodi:start="5.2359878"
             sodipodi:end="5.2334328"
             sodipodi:open="true"
             sodipodi:arc-type="arc"
             d="m 1178.8347,358.76298 a 22.772379,22.772379 0 0 1 8.3425,31.09505 22.772379,22.772379 0 0 1 -31.0897,8.36239 22.772379,22.772379 0 0 1 -8.3823,-31.08436 22.772379,22.772379 0 0 1 31.0791,-8.40211" />
        </g>
        <g
           id="g62"
           transform="matrix(1.23172,0,0,1.23172,-309.40235,-12.449192)"
           inkscape:label="slider"
           style="fill:#ffa733;fill-opacity:1">
          <path
             style="display:inline;fill:#ffa733;fill-opacity:1;stroke:#000000;stroke-width:12.256;stroke-linecap:round;stroke-dasharray:none;stroke-opacity:1"
             d="M 1097.1298,309.69171 V 568.86306"
             id="path61-0" />
          <path
             style="display:inline;fill:#ffa733;fill-opacity:1;stroke:#000000;stroke-width:10;stroke-linecap:round;stroke-dasharray:none;stroke-opacity:1"
             id="path62-3"
             sodipodi:type="arc"
             sodipodi:cx="1097.1298"
             sodipodi:cy="445.24155"
             sodipodi:rx="22.772379"
             sodipodi:ry="22.772379"
             sodipodi:start="5.2359878"
             sodipodi:end="5.2334328"
             sodipodi:open="true"
             sodipodi:arc-type="arc"
             d="m 1108.516,425.52009 a 22.772379,22.772379 0 0 1 8.3425,31.09505 22.772379,22.772379 0 0 1 -31.0897,8.36239 22.772379,22.772379 0 0 1 -8.3823,-31.08436 22.772379,22.772379 0 0 1 31.079,-8.40211" />
        </g>
        <g
           id="g64"
           transform="matrix(1.23172,0,0,1.23172,-309.40235,-12.965824)"
           inkscape:label="slider"
           style="fill:#ffa733;fill-opacity:1">
          <path
             style="display:inline;fill:#ffa733;fill-opacity:1;stroke:#000000;stroke-width:12.256;stroke-linecap:round;stroke-dasharray:none;stroke-opacity:1"
             d="M 1232.6132,310.11115 V 569.2825"
             id="path61-0-5" />
          <path
             style="display:inline;fill:#ffa733;fill-opacity:1;stroke:#000000;stroke-width:10;stroke-linecap:round;stroke-dasharray:none;stroke-opacity:1"
             id="path62-3-6"
             sodipodi:type="arc"
             sodipodi:cx="1232.6132"
             sodipodi:cy="502.04974"
             sodipodi:rx="22.772379"
             sodipodi:ry="22.772379"
             sodipodi:start="5.2359878"
             sodipodi:end="5.2334328"
             sodipodi:open="true"
             sodipodi:arc-type="arc"
             d="m 1243.9993,482.32829 a 22.772379,22.772379 0 0 1 8.3426,31.09504 22.772379,22.772379 0 0 1 -31.0897,8.3624 22.772379,22.772379 0 0 1 -8.3823,-31.08436 22.772379,22.772379 0 0 1 31.079,-8.40211" />
        </g>
      </g>
    </g>
    <g
       id="g66"
       inkscape:label="hand"
       transform="translate(54.437914,-31.362761)">
      <path
         style="display:inline;fill:#ffffff;fill-opacity:1;stroke:none;stroke-width:5;stroke-linecap:round;stroke-dasharray:none;stroke-opacity:1;filter:url(#filter33)"
         d="m 1446.3434,1303.8186 c 0,0 -122.537,-124.7059 -146.3938,-203.867 -23.8568,-79.1611 -39.0384,-172.41936 -47.7135,-191.93856 -8.6752,-19.5192 -21.688,-69.4015 -34.7008,-83.4987 -13.0129,-14.0972 -66.1484,-36.8696 -97.596,-41.2072 -31.4476,-4.3376 -52.0512,-23.8568 -59.642,-28.1944 -7.5908,-4.3376 -21.6879,-19.5191 -46.6291,-16.2659 -24.94119,3.2532 -35.78519,-5.422 -35.78519,-5.422 0,0 -16.266,-40.1228 -52.0512,-41.2072 -35.78505,-1.0844 -32.5319,21.68798 -40.12265,27.10997 -7.5908,5.42203 -14.0972,-17.35038 -14.0972,-17.35038 0,0 -20.6036,-42.29156 -28.1944,-57.47314 -7.5908,-15.18159 -43.376,-125.79029 -43.376,-125.79029 -0.043,-1.60965 -97.68133,-70.92943 -81.32987,55.30435 11.68817,90.23307 83.57477,207.35279 85.66747,263.50899 0,0 -6.3216,50.3149 -10.84395,73.7391 -7.50286,38.8625 21.40405,49.0769 52.05115,34.7008 11.1039,17.1194 9.7596,56.38866 9.7596,56.38866 -41.5091,-16.88366 -70.66362,-35.20206 -93.25831,-86.75186 -24.99264,-57.0208 -138.20939,-73.3418 -142.05627,-18.4348 11.86305,32.7361 156.57704,189.91776 149.64706,195.19176 0,0 76.77532,106.3008 241.82096,202.7826 103.9379,60.7597 127.3644,122.4322 152.9002,173.5039 80.4422,-76.5175 167.3181,-142.4489 281.9438,-164.8287 z"
         id="path18-8"
         sodipodi:nodetypes="csssssscsscscscsccsccscc"
         inkscape:label="shadow"
         transform="matrix(1.0109697,0.05937261,-0.06024534,0.99632458,25.978419,-39.49261)" />
      <path
         style="display:inline;fill:#ffffff;fill-opacity:1;stroke:none;stroke-width:5;stroke-linecap:round;stroke-dasharray:none;stroke-opacity:1"
         d="m 1442.4864,1299.612 c 0,0 -122.5371,-124.7059 -146.3939,-203.867 -23.8568,-79.1611 -39.0384,-172.41941 -47.7135,-191.93859 -8.6752,-19.51918 -21.688,-69.40154 -34.7008,-83.49872 -13.0128,-14.09719 -66.1483,-36.86957 -97.5959,-41.20717 -31.4476,-4.33759 -52.0512,-23.85677 -59.642,-28.19437 -7.5908,-4.3376 -21.6879,-19.51918 -46.6291,-16.26598 -24.9412,3.25319 -35.78519,-5.422 -35.78519,-5.422 0,0 -16.26598,-40.12276 -52.05115,-41.20716 -35.78517,-1.0844 -32.53197,21.68798 -40.12276,27.10997 -7.59079,5.422 -14.09719,-17.35038 -14.09719,-17.35038 0,0 -20.60358,-42.29156 -28.19437,-57.47314 -7.59079,-15.18159 -43.37596,-125.79029 -43.37596,-125.79029 -0.0435,-1.60965 -97.68138,-70.92943 -81.32992,55.30435 11.68817,90.23307 83.57475,207.35274 85.66752,263.50895 0,0 -6.32167,50.31491 -10.844,73.73913 -7.50286,38.86251 21.40403,49.07693 52.05116,34.70077 11.10392,17.11946 9.75959,56.38875 9.75959,56.38875 -41.50911,-16.88367 -70.66362,-35.20207 -93.25831,-86.75192 -24.99264,-57.02077 -138.20939,-73.3418 -142.05627,-18.43478 11.86305,32.73605 156.57704,189.91778 149.64706,195.19178 0,0 76.77534,106.3008 241.82099,202.7826 103.9379,60.7597 127.3644,122.4322 152.9002,173.5039 80.4421,-76.5175 167.318,-142.4489 281.9438,-164.8287 z"
         id="path18"
         sodipodi:nodetypes="csssssscsscscscsccsccscc"
         inkscape:label="fill" />
      <g
         id="g8"
         inkscape:label="hand outline"
         transform="translate(541.35082,179.42789)">
        <path
           style="fill:#000000;fill-opacity:1;fill-rule:nonzero;stroke:none;stroke-width:14.138;stroke-linecap:round;stroke-dasharray:none;stroke-opacity:1"
           d="m 851.95148,1076.0639 c 13.52244,15.0128 28.41183,27.9824 39.99863,37.2354 l 0,0 c 5.35533,4.2767 9.81923,7.6123 13.01912,9.9336 l 0,0 c 1.5612,1.1325 2.76944,1.9858 3.61657,2.5764 l 0,0 c 0.41804,0.2915 0.73209,0.5078 0.95072,0.6575 l 0,0 c 0,0 0,0 0,0 0.10823,0.074 0.18863,0.1289 0.24446,0.1667 0,0 0,0 0,0 0.007,0 0.0556,0.038 0.0625,0.042 0.0145,0.01 0.0218,0.015 0.0218,0.015 0,0 -0.005,-0.01 -0.0151,-0.021 0.005,0.01 -0.048,-0.068 -0.0434,-0.062 0,0 -10e-6,0 -10e-6,0 0.0186,0.026 -0.18921,-0.268 -0.17061,-0.2416 0,0 0,0 0,0 l 0,0 c -0.14555,-0.2059 -0.38056,-0.5376 -0.66838,-0.9421 l 0,0 c -0.57327,-0.8056 -1.4823,-2.0771 -2.5841,-3.6027 l 0,0 c -2.23351,-3.0924 -5.66394,-7.7888 -9.68491,-13.1364 l 0,0 c -8.57079,-11.3987 -21.2131,-27.6174 -34.24228,-42.0827 -33.1611,-36.8162 -72.33514,-84.37876 -89.38563,-120.75312 -28.80209,-61.44443 -29.94146,-137.77267 -64.89009,-226.23641 -12.25259,-31.01436 -8.1336,-57.13491 -24.25498,-73.87633 -11.23149,-11.66348 -16.56886,-28.27634 -61.89372,-39.8981 -41.10667,-10.54017 -51.99155,-31.16055 -74.85958,-26.07876 -15.02031,3.33784 -19.42207,-19.94311 -57.33289,-30.28242 -32.29353,-8.80731 -43.78779,0.7192 -47.04764,9.09928 -0.27484,0.57025 1.06394,1.9394 2.62806,2.86341 1.65721,0.979 3.19376,1.29573 3.50126,1.36069 0,0 0,0 0,0 0.0232,0.003 0.02,0.003 0.02,0.003 0,0 -0.003,-1.4e-4 0.0202,4.5e-4 0,0 0,0 0,0 0.38852,-0.0151 1.80353,-0.084 3.6759,0.24109 1.69381,0.29403 3.29112,0.88967 3.33079,0.65696 0,0 3.05383,-7.97524 30.1515,-0.58497 33.76383,9.2083 40.32253,35.73219 64.1198,30.44392 16.00384,-3.55642 24.74572,14.80947 68.28108,25.97238 39.08738,10.02241 38.09706,18.2269 55.22138,36.00984 12.073,12.53734 8.22977,36.20615 21.28978,69.26433 34.45289,87.2089 35.524,163.65298 65.23779,227.04235 17.80793,37.99023 58.34512,87.20308 91.68209,124.21448 z"
           id="path1"
           sodipodi:nodetypes="cssssssc"
           inkscape:path-effect="#path-effect11"
           inkscape:original-d="m 909.86528,1126.6906 c 0,0 -110.66323,-108.44 -143.1952,-177.8415 C 737.41214,886.4322 736.3069,810.04604 701.60614,722.20972 688.94984,690.17345 692.93095,665.27877 678.83376,650.63939 664.73657,636 662.56777,623.52941 620.27621,612.68542 c -42.29156,-10.84399 -52.05115,-30.36317 -71.57033,-26.02557 -19.51918,4.33759 -24.94118,-20.60359 -60.72634,-30.36317 -37.72088,-10.2875 -39.03836,6.50639 -39.03836,6.50639" />
        <path
           style="fill:#000000;fill-opacity:1;fill-rule:nonzero;stroke:none;stroke-width:14.138;stroke-linecap:round;stroke-dasharray:none;stroke-opacity:1"
           d="m 487.00166,616.62849 c 4.65687,3.50413 9.75282,5.84907 14.0575,7.7414 0,0 0,0 0,0 9.34693,4.06081 17.28355,7.83472 17.28355,7.83472 0,0 -2.9409,-8.34509 -11.0311,-16.66903 0,0 0,0 0,0 -3.67043,-3.79585 -7.77291,-7.14013 -11.78742,-10.18758 -8.78825,-6.63961 -20.44936,-17.78362 -41.72087,-47.59027 -33.68504,-47.2011 -79.63012,-87.08104 -126.52373,-19.84233 -0.0907,0.12999 5.63089,4.28409 5.63089,4.28409 0,0 5.8886,3.91362 5.96545,3.80343 38.36423,-55.0088 72.30374,-23.6332 103.41937,19.96751 21.8328,30.59317 34.32082,42.81168 44.70636,50.65806 z"
           id="path2"
           sodipodi:nodetypes="csc"
           inkscape:path-effect="#path-effect9"
           inkscape:original-d="M 518.34271,632.20461 C 496.15314,609.0472 490.39553,621.20162 448.04931,561.86408 415.60293,516.39866 375.61446,480.72473 332.91048,542.19949" />
        <path
           style="fill:#000000;fill-opacity:1;fill-rule:nonzero;stroke:none;stroke-width:14.138;stroke-linecap:round;stroke-dasharray:none;stroke-opacity:1"
           d="m 386.36598,656.86908 c 5.8474,7.11178 13.47899,11.71436 20.1108,14.1421 6.44749,2.36027 11.01683,2.40058 11.01683,2.40058 0,0 -3.13731,-3.31921 -6.95809,-8.16521 -3.8363,-4.86567 -8.22903,-11.41001 -13.30338,-17.42234 -29.77779,-35.77394 -47.50788,-102.59832 -71.06126,-147.94239 -7.48285,-14.40571 -11.55776,-12.61107 -20.22742,-31.32805 -7.60589,-16.42038 -18.61362,-47.95959 -37.78518,-117.99062 -7.79466,-28.47278 -34.65799,-50.37743 -59.97377,-47.37573 -26.65626,3.16064 -45.66811,32.28698 -40.64215,94.2739 a 272.32366,272.32366 0 0 0 0.0641,0.77703 16274220,16274220 0 0 0 0.22681,0.7353 c 9.03758,29.29924 4.5278,14.67854 11.78966,37.68717 7.26406,23.01561 17.27434,54.40005 28.252,87.85247 5.48937,16.72785 11.22214,33.97743 16.97609,50.96128 7.19139,21.22673 14.42215,42.0567 21.25251,60.93366 3.79544,10.48941 7.47247,20.39024 10.95405,29.42999 3.86689,10.04016 7.50849,19.05874 10.81257,26.65812 25.66343,59.02588 34.62049,100.30146 43.52863,151.0522 3.53498,20.13863 13.9209,39.15223 13.9209,39.15223 0,0 3.55217,-21.38267 0.004,-41.59646 -8.98702,-51.20012 -18.10047,-93.55338 -44.4882,-154.24515 -3.20231,-7.36532 -6.76112,-16.17427 -10.58479,-26.10223 -3.43992,-8.93156 -7.08142,-18.73592 -10.8529,-29.15911 -6.7901,-18.76572 -13.98462,-39.4904 -21.15658,-60.65978 -5.73673,-16.93305 -11.45501,-34.13891 -16.93329,-50.83295 -10.95762,-33.39136 -20.949,-64.7165 -28.20277,-87.69952 -7.2501,-22.97138 -2.73887,-8.34613 -11.76219,-37.59916 l 0.29093,1.51233 c -4.73363,-58.38137 12.58047,-77.23787 28.21507,-79.09167 16.97507,-2.01274 38.36749,14.03657 44.67283,37.06912 19.21122,70.17589 30.62837,103.0053 38.59282,120.19977 9.39776,20.28887 14.16083,19.68033 20.50968,31.9029 22.89739,44.08119 41.11421,112.4744 72.74146,150.47022 z"
           id="path3"
           sodipodi:nodetypes="cssscsc"
           inkscape:path-effect="#path-effect8"
           inkscape:original-d="M 417.49361,673.41176 C 369.75502,650.69717 348.92943,559.03113 319.8977,503.14034 c -6.91585,-13.31414 -11.33484,-12.11255 -20.36855,-31.61547 -7.78517,-16.80743 -18.99761,-48.99174 -38.189,-119.0952 -14.1,-51.50533 -96.5115,-75.90793 -86.75191,44.46036 0,0 67.23273,217.96419 99.7647,292.78772 32.53197,74.82353 38.51657,121.45268 50.96676,193.02302" />
        <path
           style="fill:#000000;fill-opacity:1;fill-rule:nonzero;stroke:none;stroke-width:14.138;stroke-linecap:round;stroke-dasharray:none;stroke-opacity:1"
           d="m 571.73462,619.94388 c 8.17333,6.46192 16.84117,11.2725 25.12894,14.00644 0,0 0,0 0,0 3.58206,1.23265 6.65417,1.84365 9.48891,1.69821 1.35477,-0.0512 2.50104,-0.37396 3.36451,-0.83519 1.75531,-0.94755 1.88405,-2.06653 1.88405,-2.06653 0,0 -0.82424,0.71057 -2.27012,0.55523 -0.75496,-0.0614 -1.44496,-0.33901 -2.39533,-0.82208 -2.23199,-1.14475 -3.54227,-2.52725 -6.33376,-5.00524 0,-1e-5 0,-1e-5 0,-1e-5 -5.5849,-5.16528 -12.10948,-12.37579 -20.12957,-18.64554 -12.52574,-9.84687 -27.37466,-21.88881 -42.02614,-31.35927 l -7.67482,11.87351 c 14.18622,9.16972 28.36931,20.69992 40.96333,30.60047 z"
           id="path4"
           sodipodi:nodetypes="cc"
           inkscape:path-effect="#path-effect10"
           inkscape:original-d="m 611.60103,632.74681 c -7.5908,9.21739 -42.56845,-27.08918 -76.99234,-49.34016" />
        <path
           style="fill:#000000;fill-opacity:1;fill-rule:nonzero;stroke:none;stroke-width:14.138;stroke-linecap:round;stroke-dasharray:none;stroke-opacity:1"
           d="m 273.23881,809.25413 c 8.96217,5.21208 18.72697,7.59668 26.35944,8.6504 7.5449,1.04163 12.70866,0.8167 12.70866,0.8167 0,0 -4.09943,-3.15649 -10.14154,-7.40772 -5.66092,-3.98302 -14.29978,-9.88031 -21.803,-14.27159 -36.75047,-21.43708 -42.89802,-48.80653 -69.70234,-85.50782 a 277.17508,277.17508 0 0 0 -0.23958,-0.32754 182.20406,182.20406 0 0 0 -0.27695,-0.30043 C 164.35468,661.34801 117.21204,665.55352 95.670348,675.6908 c -22.303739,10.49587 -51.059686,35.0819 11.212632,92.9062 14.87552,13.81298 34.84641,52.31369 38.91947,56.27573 52.69874,51.26242 150.16115,221.03167 355.56448,312.61167 25.5991,11.4135 67.1624,72.8388 93.47972,115.4571 l -0.068,-0.1133 c 11.84035,20 29.7954,36.4857 29.83508,36.5222 0,0 0,0 0,0 5e-5,0 4e-5,0 4e-5,0 0,0 0,0 0,-10e-5 0,0 0,0 0,0 -0.0127,-0.052 -5.78393,-23.6449 -17.66989,-43.7238 l -0.068,-0.1132 C 580.44778,1202.7154 537.01088,1137.8969 507.12413,1124.5718 305.02222,1034.4636 211.92877,869.47319 155.66047,814.73851 155.49649,814.57899 131.99086,772.61816 116.5032,758.23676 63.063065,708.61378 87.162746,695.3196 101.69027,688.48312 c 15.32787,-7.21312 56.04207,-13.46923 98.06905,32.01739 l -0.51653,-0.62797 c 25.55673,34.99305 33.79756,65.93324 73.99602,89.38159 z"
           id="path5"
           sodipodi:nodetypes="ccssssc"
           inkscape:path-effect="#path-effect12"
           inkscape:original-d="m 312.30691,818.72123 c -71.57034,-23.85678 -74.62984,-58.20895 -107.3555,-103.01791 -43.9079,-47.52237 -87.83632,-42.29156 -106.271103,-33.61636 -18.434783,8.67519 -44.865198,27.58608 13.012783,81.32992 15.18159,14.09719 36.91985,54.32796 39.03837,56.38874 54.48352,52.99855 149.76145,220.37838 353.51407,311.22248 42.70265,19.0392 120.36828,158.3223 120.36828,158.3223" />
        <path
           style="fill:#000000;fill-opacity:1;fill-rule:nonzero;stroke:none;stroke-width:14.138;stroke-linecap:round;stroke-dasharray:none;stroke-opacity:1"
           d="m 294.43703,771.96129 c 4.12497,-2.25983 4.85692,-10.71309 4.85692,-10.71309 0,0 -7.51799,-3.93361 -11.64296,-1.67378 l 0.45428,-0.23576 c -12.35125,5.64567 -50.87304,20.18045 -28.25489,-90.0489 1.84247,-8.98045 -2.84783,-19.73477 -2.84783,-19.73477 0,0 -9.07213,7.49079 -11.00162,16.89298 -24.68283,120.29151 22.63098,117.33677 47.98182,105.74908 z"
           id="path6"
           inkscape:path-effect="#path-effect15"
           inkscape:original-d="m 299.29412,761.24808 c 0,0 -82.41432,56.38875 -42.29157,-111.69309"
           sodipodi:nodetypes="cc" />
        <path
           style="fill:#000000;fill-opacity:1;fill-rule:nonzero;stroke:none;stroke-width:14.138;stroke-linecap:round;stroke-dasharray:none;stroke-opacity:1"
           d="m 127.17425,699.59016 c -5.72348,-4.82311 -12.2299,-8.44997 -17.83056,-11.20347 -3.49531,-1.73676 -9.720359,-4.44504 -11.480458,-5.24104 -2.863232,-1.29489 -4.604925,-2.14309 -4.604925,-2.14309 0,0 0.758864,1.77717 2.471952,4.54655 1.852794,2.99523 4.268657,6.26913 7.762671,10.35442 4.16426,4.8735 9.20162,9.96293 14.56499,14.4929 17.1717,14.4863 27.83948,27.3848 12.59793,41.27481 -2.95873,2.73247 -5.80306,6.81944 -7.86778,10.0664 -2.12027,3.33432 -3.50418,6.01684 -3.50418,6.01684 0,0 2.97286,0.49165 7.13953,0.057 4.1932,-0.43744 9.54988,-1.89663 13.75546,-5.69058 25.24449,-23.00595 6.32631,-46.22285 -13.00463,-62.53072 z"
           id="path7"
           sodipodi:nodetypes="cc"
           inkscape:path-effect="#path-effect13"
           inkscape:original-d="m 93.258307,681.00256 c 20.279733,20.57344 88.769023,53.66851 26.025583,86.75192" />
        <path
           style="fill:#000000;fill-opacity:1;fill-rule:nonzero;stroke:none;stroke-width:14.038;stroke-linecap:round;stroke-dasharray:none;stroke-opacity:1"
           d="m 200.72097,345.07297 c -4.30983,-13.13918 -15.28872,-24.09082 -15.28872,-24.09082 0,0 -2.35922,15.32672 1.95061,28.46591 l 0.0392,0.11706 c 3.79096,10.9058 8.14597,22.55603 11.51062,28.16377 10.17738,16.96232 53.77034,13.24828 59.45732,-9.49968 2.89294,-11.57176 -1.90644,-25.56189 -6.38841,-35.6848 -1.95522,-4.41445 -5.76013,-7.72218 -9.00739,-9.81879 l 0,0 c -1.53139,-0.98916 -2.89755,-1.6924 -3.90901,-2.159 l 0,0 c -0.4967,-0.22912 -0.88729,-0.39263 -1.16832,-0.50446 l 0,0 c 0,0 0,0 0,0 -0.13878,-0.0555 -0.24368,-0.0953 -0.31821,-0.12287 l 0,0 0,0 c -0.0561,-6.4e-4 -0.0829,-0.0129 -0.0968,-0.0226 0,0 0,0 0,0 -0.014,-0.01 -0.0177,-0.0177 -0.0184,-0.0189 0,0 0,0 0,0 0,0 0,0 0,0 0,0 0,0 0,0 0,0 0,0 0,0 0,0 0,0 0,0 0,0 0,0 0,0 -7e-5,-1e-4 -6e-5,-9e-5 -6e-5,-9e-5 0,0 -1e-5,-1e-5 6e-5,9e-5 0,0 0,0 0,0 0,0 0,0 0,0 0,0 0,0 0,0 0,0 0,0 0,0 0,0 0,0 0,0 0,0 0,0 0,0 7.5e-4,0.001 0.006,0.008 0.009,0.0248 0,0 0,0 0,0 0.003,0.0168 0.002,0.0462 -0.0223,0.097 l 0,0 0,0 c -0.008,0.0733 -0.0204,0.19581 -0.0343,0.33742 0,0 0,0 0,0 l 0,0 c -0.0273,0.28301 -0.068,0.7333 -0.10636,1.25504 l 0,0 c -0.0778,1.05797 -0.16662,2.63311 -0.17241,4.35206 l 0,0 c -0.0126,3.67376 0.31019,8.42666 2.00829,12.26351 4.1151,9.29432 7.25371,20.00469 5.60567,26.59684 -2.95831,11.83324 -31.0469,10.27204 -33.80098,5.6819 -2.46117,-4.10194 -6.54018,-14.76775 -10.28837,-25.55049 z"
           id="path8"
           sodipodi:nodetypes="cssc"
           inkscape:path-effect="#path-effect14"
           inkscape:original-d="m 185.43223,320.98209 c 0,0 13.01278,42.29157 19.51918,53.13556 6.50639,10.84399 42.29156,9.75959 46.62915,-7.5908 4.3376,-17.35038 -14.09718,-46.62916 -14.09718,-46.62916" />
      </g>
      <g
         id="g16"
         style="fill:#000000;fill-opacity:1;stroke:none"
         inkscape:label="shading"
         transform="translate(541.35082,179.42789)">
        <path
           style="fill:#000000;fill-opacity:1;stroke:none;stroke-width:5;stroke-linecap:round;stroke-dasharray:none;stroke-opacity:1"
           d="m 362.73146,699.30179 c -3.7522,3.92456 6.83593,14.41327 9.1159,23.13303 2.79921,10.70557 13.17258,25.74196 17.18078,23.90278 2.66091,-7.04321 -1.82561,-20.5981 -10.62585,-29.32501 -5.54705,-16.18216 -7.20168,-19.92365 -15.67083,-17.7108 z"
           id="path15"
           sodipodi:nodetypes="csccc" />
        <path
           style="fill:#000000;fill-opacity:1;stroke:none;stroke-width:3.35384;stroke-linecap:round;stroke-dasharray:none;stroke-opacity:1"
           d="m 285.36092,552.28321 c 2.69082,2.44643 7.72261,-4.27957 14.28437,-5.66014 13.05061,-2.7458 14.99064,-2.40378 13.86993,-4.89906 -5.08308,-1.94862 -9.22919,-2.46903 -17.50212,0.83275 -9.39804,3.75083 -8.51997,2.36918 -10.65218,9.72645 z"
           id="path15-5"
           sodipodi:nodetypes="cscsc" />
        <path
           style="fill:#000000;fill-opacity:1;stroke:none;stroke-width:3.35384;stroke-linecap:round;stroke-dasharray:none;stroke-opacity:1"
           d="m 266.24725,538.12684 c 2.62473,2.51721 17.59342,-5.02127 24.18961,-6.22663 13.1191,-2.39733 23.58897,-2.41042 22.5351,-4.93466 -5.02939,-2.08328 -19.05531,-4.20495 -27.41323,-1.12462 -9.49458,3.49925 -16.98412,4.98802 -19.31148,12.28591 z"
           id="path15-5-3"
           sodipodi:nodetypes="cscsc" />
        <path
           style="fill:#000000;fill-opacity:1;stroke:none;stroke-width:2.56417;stroke-linecap:round;stroke-dasharray:none;stroke-opacity:1"
           d="m 261.92888,522.90538 c 2.44488,1.41199 14.44317,-5.1224 19.76957,-7.04793 6.47629,-2.34122 20.43574,-1.3945 19.312,-2.9933 -4.29197,-4.09072 -17.242,-3.64087 -23.98551,-0.5724 -7.66062,3.48578 -13.82286,5.36858 -15.09606,10.61363 z"
           id="path15-5-3-8"
           sodipodi:nodetypes="cscsc" />
        <path
           style="fill:#000000;fill-opacity:1;stroke:none;stroke-width:2.56417;stroke-linecap:round;stroke-dasharray:none;stroke-opacity:1"
           d="m 235.10377,428.40285 c 2.44488,1.41199 9.55491,-1.57601 14.88131,-3.50154 6.47629,-2.34122 13.34297,-0.48394 12.21923,-2.08274 -2.42293,-4.28242 -10.2031,-5.43689 -16.84482,-2.1539 -5.79158,2.86277 -5.29237,1.48673 -10.25572,7.73818 z"
           id="path15-5-3-8-8"
           sodipodi:nodetypes="cscsc" />
        <path
           style="fill:#000000;fill-opacity:1;stroke:none;stroke-width:2.17604;stroke-linecap:round;stroke-dasharray:none;stroke-opacity:1"
           d="m 233.93286,415.73379 c 4.14175,0.51883 9.553,-1.50852 14.55224,-2.13766 6.23833,-0.78507 12.40337,-0.37492 11.35876,-1.61356 -2.25231,-3.31773 -9.48461,-4.21214 -15.65862,-1.6687 -5.38374,2.21788 -9.42456,3.30841 -10.25238,5.41992 z"
           id="path15-5-3-8-8-8"
           sodipodi:nodetypes="cscsc" />
        <path
           style="fill:#000000;fill-opacity:1;stroke:none;stroke-width:5;stroke-linecap:round;stroke-dasharray:none;stroke-opacity:1"
           d="m 476.52214,645.41164 c 1.26314,7.04221 12.46065,17.00841 15.82562,25.3696 3.54473,8.80787 15.34138,45.12559 19.34958,43.28641 2.66091,-7.04321 0.31511,-18.32721 -12.1169,-46.87871 -6.82927,-15.68418 -12.75923,-18.77148 -23.0583,-21.7773 z"
           id="path15-6"
           sodipodi:nodetypes="cscsc" />
        <path
           style="fill:#000000;fill-opacity:1;stroke:none;stroke-width:2.62742;stroke-linecap:round;stroke-dasharray:none;stroke-opacity:1"
           d="m 645.69056,671.17525 c 3.59352,1.10514 16.36623,-2.26845 21.08181,-1.82758 4.96751,0.46444 21.46414,0.50895 21.56989,-1.80602 -2.6494,-2.93835 -9.37966,-1.50695 -25.70889,-2.5727 -8.97012,-0.58544 -13.05962,2.11907 -16.94281,6.2063 z"
           id="path15-6-0"
           sodipodi:nodetypes="cscsc" />
        <path
           style="fill:#000000;fill-opacity:1;stroke:none;stroke-width:2.62742;stroke-linecap:round;stroke-dasharray:none;stroke-opacity:1"
           d="m 647.25575,683.89629 c 3.59352,1.10514 16.77288,-1.5907 21.48846,-1.14983 4.96751,0.46444 22.00634,-0.1688 22.11209,-2.48377 -2.6494,-2.93835 -11.54846,-0.8292 -27.87769,-1.89495 -8.97012,-0.58544 -11.83967,1.44132 -15.72286,5.52855 z"
           id="path15-6-0-8"
           sodipodi:nodetypes="cscsc" />
        <path
           style="fill:#000000;fill-opacity:1;stroke:none;stroke-width:2.62742;stroke-linecap:round;stroke-dasharray:none;stroke-opacity:1"
           d="m 650.98916,697.37275 c 3.59352,1.10514 11.62199,-3.62395 16.33757,-3.18308 4.96751,0.46444 28.51273,2.5422 28.61848,0.22723 -2.6494,-2.93835 -13.44616,-3.13355 -29.77539,-4.1993 -8.97012,-0.58544 -11.29747,3.06792 -15.18066,7.15515 z"
           id="path15-6-0-86"
           sodipodi:nodetypes="cscsc" />
        <path
           style="fill:#000000;fill-opacity:1;stroke:none;stroke-width:2.62742;stroke-linecap:round;stroke-dasharray:none;stroke-opacity:1"
           d="m 654.3165,708.19609 c 1.96692,1.64734 13.51969,-1.0485 18.23527,-0.60763 4.96751,0.46444 23.63293,-0.30435 23.73868,-2.61932 -2.6494,-2.93835 -12.2563,-0.57534 -28.55544,-2.0305 -5.03917,-0.44989 -10.75527,3.20347 -13.41851,5.25745 z"
           id="path15-6-0-8-5"
           sodipodi:nodetypes="cscsc" />
        <path
           style="fill:#000000;fill-opacity:1;stroke:none;stroke-width:2.62742;stroke-linecap:round;stroke-dasharray:none;stroke-opacity:1"
           d="m 305.91105,821.09981 c -2.39879,0.9101 -8.65236,8.92229 -11.50506,14.84776 -3.04152,6.31768 -3.70074,16.15447 -1.73317,17.37878 3.85865,-0.87408 -2.0442,-7.96957 7.19572,-21.47525 2.85669,-4.17552 6.53176,-7.42378 6.04251,-10.75129 z"
           id="path15-6-0-8-5-24"
           sodipodi:nodetypes="cscsc" />
        <path
           style="fill:#000000;fill-opacity:1;stroke:none;stroke-width:3.2595;stroke-linecap:round;stroke-dasharray:none;stroke-opacity:1"
           d="m 316.20907,824.04058 c -3.05277,1.45549 -9.67332,11.43202 -12.15477,18.47202 -2.64568,7.50597 -1.21027,18.41495 1.76127,19.38153 5.05059,-1.69462 -4.67622,-8.34616 4.71039,-24.91467 2.90203,-5.12244 7.13921,-9.38461 5.68311,-12.93888 z"
           id="path15-6-0-8-5-24-3"
           sodipodi:nodetypes="cscsc" />
        <path
           style="fill:#000000;fill-opacity:1;stroke:none;stroke-width:3.26952;stroke-linecap:round;stroke-dasharray:none;stroke-opacity:1"
           d="m 351.63998,972.1403 c -1.9524,2.57747 -0.15967,27.48817 -0.85114,37.6153 -0.73723,10.7973 1.95345,25.4843 4.21833,26.2437 3.33919,-3.2859 -4.60775,-10.5548 -0.45364,-35.0642 1.28436,-7.57756 -1.33269,-24.19794 -2.91355,-28.7948 z"
           id="path15-6-0-8-5-24-5"
           sodipodi:nodetypes="cscsc" />
        <path
           style="fill:#000000;fill-opacity:1;stroke:none;stroke-width:4.05607;stroke-linecap:round;stroke-dasharray:none;stroke-opacity:1"
           d="m 361.94354,977.96116 c -2.38463,3.71374 0.10719,24.77904 0.14051,36.33754 0.0355,12.3237 5.05952,27.482 8.18302,27.3424 4.18533,-5.1037 -7.21292,-9.732 -3.95174,-38.7839 1.00824,-8.98184 -1.80418,-20.47247 -4.37179,-24.89604 z"
           id="path15-6-0-8-5-24-3-9"
           sodipodi:nodetypes="cscsc" />
        <path
           style="fill:#000000;fill-opacity:1;stroke:none;stroke-width:3.26952;stroke-linecap:round;stroke-dasharray:none;stroke-opacity:1"
           d="m 376.80927,994.72269 c -1.9524,2.57747 -0.15967,27.48821 -0.85114,37.61531 -0.73723,10.7973 1.95345,25.4843 4.21833,26.2437 3.33919,-3.2859 -4.60775,-10.5548 -0.45364,-35.0642 1.28436,-7.5776 -1.33269,-24.19795 -2.91355,-28.79481 z"
           id="path15-6-0-8-5-24-5-6"
           sodipodi:nodetypes="cscsc" />
        <path
           style="fill:#000000;fill-opacity:1;stroke:none;stroke-width:4.05607;stroke-linecap:round;stroke-dasharray:none;stroke-opacity:1"
           d="m 387.11283,1000.5435 c -2.38463,3.7138 0.10719,24.7791 0.14051,36.3376 0.0355,12.3237 5.05952,27.482 8.18302,27.3424 4.18533,-5.1037 -7.21292,-9.732 -3.95174,-38.7839 1.00824,-8.9819 -1.80418,-20.4725 -4.37179,-24.8961 z"
           id="path15-6-0-8-5-24-3-9-9"
           sodipodi:nodetypes="cscsc" />
        <path
           style="fill:#000000;fill-opacity:1;stroke:none;stroke-width:3.26952;stroke-linecap:round;stroke-dasharray:none;stroke-opacity:1"
           d="m 556.39894,1153.1894 c -0.1314,3.2308 24.37306,34.8587 29.58705,43.5679 5.55906,9.2856 44.75417,54.7795 47.04721,54.1099 0.86555,-4.6041 -31.22576,-32.7384 -42.89236,-54.8257 -3.58959,-6.7959 -29.81956,-39.9806 -33.7419,-42.8521 z"
           id="path15-6-0-8-5-24-5-7"
           sodipodi:nodetypes="cscsc" />
        <path
           style="fill:#000000;fill-opacity:1;stroke:none;stroke-width:4.05607;stroke-linecap:round;stroke-dasharray:none;stroke-opacity:1"
           d="m 565.06385,1145.8507 c 0.1624,4.4104 21.41883,29.7711 28.0451,39.2417 7.06492,10.0976 52.2402,62.2371 54.72492,60.3393 0.52242,-6.5797 -41.72189,-47.0522 -57.37647,-71.7419 -5.38445,-8.4921 -20.76002,-25.6732 -25.39355,-27.8391 z"
           id="path15-6-0-8-5-24-3-9-5"
           sodipodi:nodetypes="cscsc" />
        <path
           style="fill:#000000;fill-opacity:1;stroke:none;stroke-width:3.26952;stroke-linecap:round;stroke-dasharray:none;stroke-opacity:1"
           d="m 573.41869,1136.4856 c -0.1314,3.2308 15.56232,22.6592 20.77632,31.3685 5.55905,9.2856 65.08665,69.8254 67.37969,69.1559 0.86554,-4.6042 -58.7424,-56.0528 -69.32459,-78.547 -3.27169,-6.9545 -14.90908,-19.1058 -18.83142,-21.9774 z"
           id="path15-6-0-8-5-24-5-6-1"
           sodipodi:nodetypes="cscsc" />
        <path
           style="fill:#000000;fill-opacity:1;stroke:none;stroke-width:4.05607;stroke-linecap:round;stroke-dasharray:none;stroke-opacity:1"
           d="m 583.43905,1129.2823 c 0.16245,4.4105 14.23474,20.2827 20.86101,29.7533 7.06491,10.0977 68.23507,74.3011 70.7198,72.4032 0.52243,-6.5797 -59.86931,-58.4987 -73.77799,-84.2125 -4.30012,-7.9498 -13.16929,-15.778 -17.80282,-17.944 z"
           id="path15-6-0-8-5-24-3-9-9-8"
           sodipodi:nodetypes="cscsc" />
        <path
           style="fill:#000000;fill-opacity:1;stroke:none;stroke-width:3.26952;stroke-linecap:round;stroke-dasharray:none;stroke-opacity:1"
           d="m 400.9614,1013.6305 c -1.71579,2.7407 2.28203,27.3938 2.49261,37.5423 0.22453,10.8201 4.20884,25.2101 6.53221,25.7654 3.0342,-3.5694 -5.52685,-10.1039 -3.56569,-34.8854 0.60637,-7.6617 -3.47629,-23.9839 -5.45913,-28.4223 z"
           id="path15-6-0-8-5-24-5-61"
           sodipodi:nodetypes="cscsc" />
        <path
           style="fill:#000000;fill-opacity:1;stroke:none;stroke-width:4.05607;stroke-linecap:round;stroke-dasharray:none;stroke-opacity:1"
           d="m 415.47925,1008.8327 c -2.04541,3.9108 -1.43084,34.3523 -0.37121,45.8622 1.12976,12.2719 10.93059,34.7837 14.02935,34.3673 3.71556,-5.4552 -11.49921,-16.9126 -10.83083,-46.1394 0.20663,-9.0358 0.12298,-29.9121 -2.82731,-34.0901 z"
           id="path15-6-0-8-5-24-3-9-6"
           sodipodi:nodetypes="cscsc" />
        <path
           style="fill:#000000;fill-opacity:1;stroke:none;stroke-width:3.26952;stroke-linecap:round;stroke-dasharray:none;stroke-opacity:1"
           d="m 428.5875,1012.9751 c -1.65665,2.7768 -0.86941,33.7605 -0.44136,43.9021 0.4564,10.8128 8.19876,32.6861 12.45047,37.313 2.95699,-3.6336 -4.59197,-15.3506 -7.57145,-40.3602 -0.90919,-7.6317 -2.36014,-36.4601 -4.43766,-40.8549 z"
           id="path15-6-0-8-5-24-5-61-0"
           sodipodi:nodetypes="cscsc" />
        <path
           style="fill:#000000;fill-opacity:1;stroke:none;stroke-width:4.05607;stroke-linecap:round;stroke-dasharray:none;stroke-opacity:1"
           d="m 444.83696,1024.3352 c -1.96112,3.9537 -3.01122,33.9138 -1.70513,45.3983 1.39253,12.2449 8.43881,31.9334 11.52793,31.4507 3.59778,-5.5336 -6.99483,-10.1244 -6.95305,-39.3588 0.0129,-9.0382 0.16941,-33.3764 -2.86975,-37.4902 z"
           id="path15-6-0-8-5-24-3-9-6-2"
           sodipodi:nodetypes="cscsc" />
        <path
           style="fill:#000000;fill-opacity:1;stroke:none;stroke-width:3.66282;stroke-linecap:round;stroke-dasharray:none;stroke-opacity:1"
           d="m 458.06377,1034.5906 c -1.28481,3.7241 -2.06516,31.644 -0.33311,44.1968 1.84668,13.3835 9.48012,33.9386 11.86053,34.1898 2.46383,-5.0008 -5.44777,-10.3455 -7.22992,-41.4646 -0.55095,-9.6211 -1.67069,-31.7885 -4.2975,-36.922 z"
           id="path15-6-0-8-5-24-5-61-5"
           sodipodi:nodetypes="cscsc" />
        <path
           style="fill:#000000;fill-opacity:1;stroke:none;stroke-width:3.66282;stroke-linecap:round;stroke-dasharray:none;stroke-opacity:1"
           d="m 483.19189,1046.9315 c -1.09593,3.784 0.34193,39.5697 2.70299,52.0195 2.51732,13.2737 24.45858,31.7924 26.84861,31.9236 2.20925,-5.1184 -17.61838,-14.3961 -21.23416,-41.3197 -1.28269,-9.5511 -5.43582,-37.6285 -8.31744,-42.6234 z"
           id="path15-6-0-8-5-24-5-61-5-8"
           sodipodi:nodetypes="cscsc" />
        <path
           style="fill:#000000;fill-opacity:1;stroke:none;stroke-width:3.66282;stroke-linecap:round;stroke-dasharray:none;stroke-opacity:1"
           d="m 499.94154,1057.6393 c -1.09593,3.784 -3.72457,29.8101 -1.36351,42.2599 2.51732,13.2737 66.20794,83.0303 68.59797,83.1615 2.20925,-5.1184 -37.40866,-46.3859 -61.62802,-81.9847 -5.42076,-7.9677 -2.72482,-38.4418 -5.60644,-43.4367 z"
           id="path15-6-0-8-5-24-5-61-5-8-2"
           sodipodi:nodetypes="cscsc" />
        <path
           style="fill:#000000;fill-opacity:1;stroke:none;stroke-width:4.54398;stroke-linecap:round;stroke-dasharray:none;stroke-opacity:1"
           d="m 471.37149,1041.3017 c -1.435,5.2381 -2.83239,29.0281 -0.0565,43.1102 2.95964,15.0144 11.43804,31.9985 14.43914,30.8978 2.85431,-7.4691 -7.7832,-5.4991 -11.51096,-41.8904 -1.15248,-11.2508 0.67251,-27.4894 -2.87168,-32.1176 z"
           id="path15-6-0-8-5-24-3-9-6-4"
           sodipodi:nodetypes="cscsc" />
        <path
           style="fill:#000000;fill-opacity:1;stroke:none;stroke-width:1.3889;stroke-linecap:round;stroke-dasharray:none;stroke-opacity:1"
           d="m 351.61512,897.52363 c 0.0422,1.40942 2.85244,5.6858 5.22149,7.87895 2.52586,2.33834 7.12744,3.74912 8.03641,2.80347 0.21453,-2.20418 -4.15108,0.26744 -9.1016,-6.22908 -1.53054,-2.00852 -2.48287,-4.36574 -4.1563,-4.45334 z"
           id="path15-6-0-8-5-24-3-1"
           sodipodi:nodetypes="cscsc" />
        <path
           style="fill:#000000;fill-opacity:1;stroke:none;stroke-width:2.62742;stroke-linecap:round;stroke-dasharray:none;stroke-opacity:1"
           d="m 321.30705,825.27448 c -0.96563,2.37698 7.15081,23.81663 10.52559,50.45185 1.09641,8.65337 12.48101,19.9355 14.71709,19.32703 -6.54497,-15.78653 -9.9143,-10.25179 -12.37171,-30.62218 -0.60593,-5.02278 -10.09991,-37.25067 -12.87097,-39.1567 z"
           id="path15-6-0-8-5-24-3-8"
           sodipodi:nodetypes="cscsc" />
        <path
           style="fill:#000000;fill-opacity:1;stroke:none;stroke-width:2.62742;stroke-linecap:round;stroke-dasharray:none;stroke-opacity:1"
           d="m 658.58482,721.37864 c 3.59352,1.10514 10.94424,-1.72625 15.65982,-1.28538 4.96751,0.46444 24.85289,-0.0332 24.95864,-2.34822 -2.6494,-2.93835 -8.56637,-0.8292 -24.8956,-1.89495 -8.97012,-0.58544 -11.83967,1.44132 -15.72286,5.52855 z"
           id="path15-6-0-1"
           sodipodi:nodetypes="cscsc" />
        <path
           style="fill:#000000;fill-opacity:1;stroke:none;stroke-width:2.62742;stroke-linecap:round;stroke-dasharray:none;stroke-opacity:1"
           d="m 138.60743,804.93676 c 3.24359,-1.90102 3.96988,-3.96979 7.48247,-7.14671 3.70026,-3.34662 14.88471,-15.47299 13.25028,-17.11583 -3.95627,-0.034 -7.45109,5.89323 -19.27493,17.20589 -6.49518,6.21438 -1.8447,1.43215 -1.45782,7.05665 z"
           id="path15-6-0-59"
           sodipodi:nodetypes="cscsc" />
        <path
           style="fill:#000000;fill-opacity:1;stroke:none;stroke-width:2.62742;stroke-linecap:round;stroke-dasharray:none;stroke-opacity:1"
           d="m 149.44635,819.83797 c 3.24359,-1.90102 7.04855,-12.35094 10.56114,-15.52785 3.70026,-3.34663 9.73645,-14.43301 8.10202,-16.07584 -3.95627,-0.034 -3.4024,6.05189 -15.22625,17.36455 -6.49517,6.21437 -3.82379,8.61464 -3.43691,14.23914 z"
           id="path15-6-0-8-67"
           sodipodi:nodetypes="cscsc" />
        <path
           style="fill:#000000;fill-opacity:1;stroke:none;stroke-width:2.62742;stroke-linecap:round;stroke-dasharray:none;stroke-opacity:1"
           d="m 163.5276,830.80552 c 3.24358,-1.90101 5.05035,-8.30308 7.343,-13.78434 1.92519,-4.60277 11.11715,-16.85278 9.48272,-18.49562 -3.95627,-0.034 -6.24778,3.72379 -14.81842,15.9853 -5.14997,7.36775 -2.39419,10.67017 -2.0073,16.29466 z"
           id="path15-6-0-86-1"
           sodipodi:nodetypes="cscsc" />
        <path
           style="fill:#000000;fill-opacity:1;stroke:none;stroke-width:2.62742;stroke-linecap:round;stroke-dasharray:none;stroke-opacity:1"
           d="m 165.7552,841.90541 c 2.54357,-0.33584 8.36661,-10.67152 11.8792,-13.84843 3.70026,-3.34663 15.75148,-17.62098 14.11705,-19.26382 -3.95627,-0.034 -8.70917,8.64281 -20.79964,19.67006 -3.73798,3.40927 -4.90986,10.09115 -5.19661,13.44219 z"
           id="path15-6-0-8-5-26"
           sodipodi:nodetypes="cscsc" />
        <path
           style="fill:#000000;fill-opacity:1;stroke:none;stroke-width:2.62742;stroke-linecap:round;stroke-dasharray:none;stroke-opacity:1"
           d="m 176.18607,852.009 c 3.24358,-1.90101 6.12617,-9.23181 9.63876,-12.40872 3.70026,-3.34662 16.77598,-18.33667 15.14152,-19.97955 -3.95627,-0.034 -6.40187,5.75208 -18.22572,17.06473 -6.49518,6.21438 -6.94145,9.69905 -6.55456,15.32354 z"
           id="path15-6-0-1-5"
           sodipodi:nodetypes="cscsc" />
        <path
           style="fill:#000000;fill-opacity:1;stroke:none;stroke-width:2.62742;stroke-linecap:round;stroke-dasharray:none;stroke-opacity:1"
           d="m 661.77661,733.69303 c 4.94902,2.46064 15.55293,-1.3196 20.26851,-0.87873 4.96751,0.46444 23.76849,-2.0665 23.87424,-4.38147 -2.6494,-2.93835 -16.69936,1.0685 -33.02859,0.003 -8.97012,-0.58544 -7.23097,1.17022 -11.11416,5.25745 z"
           id="path15-6-0-8-6"
           sodipodi:nodetypes="cscsc" />
        <path
           style="fill:#000000;fill-opacity:1;stroke:none;stroke-width:2.62742;stroke-linecap:round;stroke-dasharray:none;stroke-opacity:1"
           d="m 664.45896,749.2214 c 3.59352,1.10514 9.18209,-3.35285 13.89767,-2.91198 4.96751,0.46444 31.08818,-0.711 31.19393,-3.02597 -2.6494,-2.93835 -11.68401,-0.96475 -28.01324,-2.0305 -8.97012,-0.58544 -17.39721,4.69452 -17.07836,7.96845 z"
           id="path15-6-0-5"
           sodipodi:nodetypes="cscsc" />
        <path
           style="fill:#000000;fill-opacity:1;stroke:none;stroke-width:2.62742;stroke-linecap:round;stroke-dasharray:none;stroke-opacity:1"
           d="m 667.37965,761.4195 c 3.59352,1.10514 10.94424,-3.64321 15.65982,-3.20234 4.96751,0.46444 28.83764,-0.21132 28.94339,-2.52629 -2.6494,-2.93835 -12.55112,-0.65113 -28.88035,-1.71688 -8.97012,-0.58544 -11.83967,3.35828 -15.72286,7.44551 z"
           id="path15-6-0-8-9"
           sodipodi:nodetypes="cscsc" />
        <path
           style="fill:#000000;fill-opacity:1;stroke:none;stroke-width:2.62742;stroke-linecap:round;stroke-dasharray:none;stroke-opacity:1"
           d="m 670.57086,776.33651 c 3.59352,1.10514 16.52105,-4.02262 21.23663,-3.58175 4.96751,0.46444 23.64422,-1.36549 23.74997,-3.68046 -2.6494,-2.93835 -2.90382,0.11965 -19.23305,-0.9461 -8.97012,-0.58544 -21.87036,4.12108 -25.75355,8.20831 z"
           id="path15-6-0-86-0"
           sodipodi:nodetypes="cscsc" />
        <path
           style="fill:#000000;fill-opacity:1;stroke:none;stroke-width:2.62742;stroke-linecap:round;stroke-dasharray:none;stroke-opacity:1"
           d="m 678.10024,787.05554 c 3.59352,1.10514 19.54898,-4.32496 24.26456,-3.88409 4.96751,0.46444 16.95246,-0.21132 17.05821,-2.52629 -2.6494,-2.93835 -5.88193,-0.35677 -22.21116,-1.42252 -8.97012,-0.58544 -15.22842,3.74567 -19.11161,7.8329 z"
           id="path15-6-0-8-5-8"
           sodipodi:nodetypes="cscsc" />
        <path
           style="fill:#000000;fill-opacity:1;stroke:none;stroke-width:2.62742;stroke-linecap:round;stroke-dasharray:none;stroke-opacity:1"
           d="m 681.69082,802.13579 c 3.59352,1.10514 12.97749,-5.115 17.69307,-4.67413 4.96751,0.46444 27.42833,-2.47315 27.53408,-4.78812 -2.6494,-2.93835 -6.39,0.8098 -22.7268,-0.1328 -9.38666,-0.5416 -24.28849,6.1048 -22.50035,9.59505 z"
           id="path15-6-0-1-7"
           sodipodi:nodetypes="cscsc" />
        <path
           style="fill:#000000;fill-opacity:1;stroke:none;stroke-width:2.62742;stroke-linecap:round;stroke-dasharray:none;stroke-opacity:1"
           d="m 686.91585,815.12792 c 5.89787,-0.25035 20.83938,-3.35284 26.36826,-4.67412 4.85254,-1.15965 16.991,-0.711 17.09675,-3.02597 -2.6494,-2.93835 -10.6124,-3.38701 -26.7933,-0.9461 -8.69902,1.31226 -13.60182,3.33902 -16.67171,8.64619 z"
           id="path15-6-0-8-6-4"
           sodipodi:nodetypes="cscsc" />
        <path
           style="fill:#000000;fill-opacity:1;stroke:none;stroke-width:2.62742;stroke-linecap:round;stroke-dasharray:none;stroke-opacity:1"
           d="m 696.7737,823.10386 c 3.59352,1.10514 10.80869,-1.99735 15.52427,-1.55648 4.96751,0.46444 19.702,-0.1688 19.80775,-2.48377 -2.6494,-2.93835 0.65102,-0.15145 -15.67821,-1.2172 -8.97012,-0.58544 -15.77062,1.17022 -19.65381,5.25745 z"
           id="path15-6-0-7"
           sodipodi:nodetypes="cscsc" />
        <path
           style="fill:#000000;fill-opacity:1;stroke:none;stroke-width:2.62742;stroke-linecap:round;stroke-dasharray:none;stroke-opacity:1"
           d="m 693,843.43566 c 3.59352,1.10514 10.80869,-1.99735 15.52427,-1.55648 4.96751,0.46444 19.702,-0.1688 19.80775,-2.48377 -2.6494,-2.93835 0.65102,-0.15145 -15.67821,-1.2172 -8.97012,-0.58544 -15.77062,1.17022 -19.65381,5.25745 z"
           id="path15-6-0-7-5"
           sodipodi:nodetypes="cscsc" />
        <path
           style="fill:#000000;fill-opacity:1;stroke:none;stroke-width:2.62742;stroke-linecap:round;stroke-dasharray:none;stroke-opacity:1"
           d="m 694.2724,833.79165 c 3.59352,1.10514 8.63989,0.0359 13.35547,0.47677 4.96751,0.46444 27.02168,-2.20205 27.12743,-4.51702 -2.6494,-2.93835 -0.43337,-0.42255 -16.7626,-1.4883 -8.97012,-0.58544 -19.83711,1.44132 -23.7203,5.52855 z"
           id="path15-6-0-8-1"
           sodipodi:nodetypes="cscsc" />
        <path
           style="fill:#000000;fill-opacity:1;stroke:none;stroke-width:2.62742;stroke-linecap:round;stroke-dasharray:none;stroke-opacity:1"
           d="m 263.82363,695.23607 c -1.87273,8.96248 2.62683,37.51107 2.60325,42.24715 -0.0305,6.12487 1.36782,29.84789 3.68322,29.75185 2.69672,-2.89497 0.71576,-2.43352 0.35692,-18.79356 -0.19713,-8.98704 -3.72489,-30.30891 -6.64339,-53.20544 z"
           id="path15-6-0-86-8"
           sodipodi:nodetypes="cscsc" />
        <path
           style="fill:#000000;fill-opacity:1;stroke:none;stroke-width:2.62742;stroke-linecap:round;stroke-dasharray:none;stroke-opacity:1"
           d="m 262.86318,694.81913 c -0.009,9.15604 10.20803,36.19084 11.14908,40.83254 1.21699,6.00283 7.41537,28.94443 9.66274,28.37905 2.05091,-3.38333 0.20537,-2.52827 -3.4764,-18.47268 -2.02251,-8.75873 -9.81694,-28.91596 -17.33542,-50.73891 z"
           id="path15-6-0-86-8-0"
           sodipodi:nodetypes="cscsc" />
        <path
           style="fill:#000000;fill-opacity:1;stroke:none;stroke-width:2.62742;stroke-linecap:round;stroke-dasharray:none;stroke-opacity:1"
           d="m 258.48689,686.9082 c -2.63731,8.768 -0.61206,37.59796 -1.04325,42.31442 -0.55765,6.09952 -1.20672,29.85484 1.10837,29.95848 2.93591,-2.65208 0.92259,-2.36287 1.97342,-18.69307 0.57726,-8.97065 -1.10191,-30.51706 -2.03854,-53.57983 z"
           id="path15-6-0-86-8-0-3"
           sodipodi:nodetypes="cscsc" />
        <path
           style="fill:#000000;fill-opacity:1;stroke:none;stroke-width:2.62742;stroke-linecap:round;stroke-dasharray:none;stroke-opacity:1"
           d="m 353.67622,828.85478 c -1.24651,9.07081 5.22255,37.2385 5.52756,41.9648 0.39444,6.11225 3.43498,29.68112 5.73817,29.42469 2.48939,-3.07505 0.54522,-2.4773 -0.94762,-18.77304 -0.82006,-8.95172 -5.81836,-29.97752 -10.31811,-52.61645 z"
           id="path15-6-0-86-8-0-3-1"
           sodipodi:nodetypes="cscsc" />
        <path
           style="fill:#000000;fill-opacity:1;stroke:none;stroke-width:2.62742;stroke-linecap:round;stroke-dasharray:none;stroke-opacity:1"
           d="m 703.77304,861.07355 c 3.59352,1.10514 12.16419,-1.18405 16.87977,-0.74318 4.96751,0.46444 21.73524,-0.84655 21.84099,-3.16152 -2.6494,-2.93835 3.36202,-1.23585 -12.96721,-2.3016 -8.97012,-0.58544 -21.87036,2.11907 -25.75355,6.2063 z"
           id="path15-6-0-8-5-2"
           sodipodi:nodetypes="cscsc" />
        <path
           style="fill:#000000;fill-opacity:1;stroke:none;stroke-width:2.62742;stroke-linecap:round;stroke-dasharray:none;stroke-opacity:1"
           d="m 705.05927,874.12055 c 3.59352,1.10514 13.51969,-0.2352 18.23527,0.20567 4.96751,0.46444 20.78639,-0.1688 20.89214,-2.48375 -2.6494,-2.93835 -0.16228,-4.48905 -16.35596,-2.97935 -8.95039,0.83442 -16.17726,-1.26968 -20.06045,2.81755 z"
           id="path15-6-0-1-3"
           sodipodi:nodetypes="cscscc" />
        <path
           style="fill:#000000;fill-opacity:1;stroke:none;stroke-width:2.62742;stroke-linecap:round;stroke-dasharray:none;stroke-opacity:1"
           d="m 707.43776,886.57049 c 3.59352,1.10514 14.33298,0.98475 19.04856,1.42562 4.96751,0.46444 20.78639,1.4578 20.89214,-0.85717 -2.6494,-2.93835 2.41318,-2.86245 -13.91605,-3.9282 -8.97012,-0.58544 -22.14146,-0.72748 -26.02465,3.35975 z"
           id="path15-6-0-8-6-0"
           sodipodi:nodetypes="cscsc" />
        <path
           style="fill:#000000;fill-opacity:1;stroke:none;stroke-width:2.62742;stroke-linecap:round;stroke-dasharray:none;stroke-opacity:1"
           d="m 723.11443,1004.811 c 3.59352,1.1052 50.66035,0.3071 55.37593,0.748 4.96751,0.4644 20.78639,1.4578 20.89214,-0.8572 -2.6494,-2.9384 2.41318,-2.8625 -13.91605,-3.9282 -8.97012,-0.5854 -58.46883,-0.05 -62.35202,4.0374 z"
           id="path15-6-0-8-6-0-7"
           sodipodi:nodetypes="cscsc" />
        <path
           style="fill:#000000;fill-opacity:1;stroke:none;stroke-width:2.62742;stroke-linecap:round;stroke-dasharray:none;stroke-opacity:1"
           d="m 355.09352,556.09049 c 1.09341,3.59713 28.07653,42.16958 30.34815,46.3254 2.39302,4.37782 10.41598,18.04734 12.39428,16.84038 0.95431,-3.83964 3.72257,0.39973 -4.52586,-13.73331 -4.53112,-7.76368 -32.65646,-48.4991 -38.21657,-49.43247 z"
           id="path15-6-0-8-6-0-7-0"
           sodipodi:nodetypes="cscsc" />
        <path
           style="fill:#000000;fill-opacity:1;stroke:none;stroke-width:2.62742;stroke-linecap:round;stroke-dasharray:none;stroke-opacity:1"
           d="m 345.42749,555.265 c 1.09341,3.59713 28.07653,42.16958 30.34815,46.3254 2.39302,4.37782 10.41598,18.04734 12.39428,16.84038 0.95431,-3.83964 3.72257,0.39973 -4.52586,-13.73331 -4.53112,-7.76368 -32.65646,-48.4991 -38.21657,-49.43247 z"
           id="path15-6-0-8-6-0-7-0-0"
           sodipodi:nodetypes="cscsc" />
        <path
           style="fill:#000000;fill-opacity:1;stroke:none;stroke-width:2.62742;stroke-linecap:round;stroke-dasharray:none;stroke-opacity:1"
           d="m 240.54032,543.85816 c 1.09341,3.59713 48.37435,123.41148 50.64597,127.5673 2.39302,4.37782 62.19603,143.83762 64.17433,142.63066 0.95431,-3.83964 -41.00889,-100.99157 -49.25732,-115.12461 -4.53112,-7.76368 -60.00287,-154.13998 -65.56298,-155.07335 z"
           id="path15-6-0-8-6-0-7-0-5"
           sodipodi:nodetypes="cscsc" />
        <path
           style="fill:#000000;fill-opacity:1;stroke:none;stroke-width:2.62742;stroke-linecap:round;stroke-dasharray:none;stroke-opacity:1"
           d="m 187.18197,406.62892 c 1.09341,3.59713 19.48631,48.13936 21.5081,52.42229 12.74463,26.998 28.45745,86.32868 30.43575,85.12172 0.95431,-3.83964 -12.63781,-56.1346 -20.88624,-70.26764 -4.53112,-7.76368 -25.4975,-66.343 -31.05761,-67.27637 z"
           id="path15-6-0-8-6-0-7-0-5-5"
           sodipodi:nodetypes="cscsc" />
        <path
           style="fill:#000000;fill-opacity:1;stroke:none;stroke-width:2.40961;stroke-linecap:round;stroke-dasharray:none;stroke-opacity:1"
           d="m 237.48645,554.1003 c -0.90328,-3.52072 -15.89134,-51.39489 -17.58779,-55.59584 -10.69384,-26.48133 -25.50684,-82.22234 -27.22657,-81.07036 -0.86563,3.73153 12.19609,52.58649 19.1542,66.46879 3.82231,7.62595 20.87469,69.21784 25.66016,70.19741 z"
           id="path15-6-0-8-6-0-7-0-5-5-2"
           sodipodi:nodetypes="cscsc" />
        <path
           style="fill:#000000;fill-opacity:1;stroke:none;stroke-width:2.62742;stroke-linecap:round;stroke-dasharray:none;stroke-opacity:1"
           d="m 235.35294,555.85422 c 1.09341,3.59713 48.37435,123.41148 50.64597,127.5673 2.39302,4.37782 62.19603,143.83762 64.17433,142.63066 0.95431,-3.83964 -41.00889,-100.99157 -49.25732,-115.12461 -4.53112,-7.76368 -60.00287,-154.13998 -65.56298,-155.07335 z"
           id="path15-6-0-8-6-0-7-0-5-8"
           sodipodi:nodetypes="cscsc" />
        <path
           style="fill:#000000;fill-opacity:1;stroke:none;stroke-width:2.62742;stroke-linecap:round;stroke-dasharray:none;stroke-opacity:1"
           d="m 287.91816,684.0844 c 1.09341,3.59713 31.56617,100.6391 47.39277,141.66448 1.79572,4.65482 15.56688,62.5077 17.54518,61.30074 0.95431,-3.83964 -4.63002,-42.2715 -10.21896,-57.65146 C 296.01246,701.0938 293.47827,685.01777 287.91816,684.0844 Z"
           id="path15-6-0-8-6-0-7-0-5-0"
           sodipodi:nodetypes="cscsc" />
        <path
           style="fill:#000000;fill-opacity:1;stroke:none;stroke-width:2.62742;stroke-linecap:round;stroke-dasharray:none;stroke-opacity:1"
           d="m 369,577 c 1.09341,3.59713 28.07653,42.16958 30.34815,46.3254 2.39302,4.37782 10.41598,18.04734 12.39428,16.84038 0.95431,-3.83964 3.72257,0.39973 -4.52586,-13.73331 C 402.68545,618.66879 374.56011,577.93337 369,577 Z"
           id="path15-6-0-8-6-0-7-0-8"
           sodipodi:nodetypes="cscsc" />
        <path
           style="fill:#000000;fill-opacity:1;stroke:none;stroke-width:2.62742;stroke-linecap:round;stroke-dasharray:none;stroke-opacity:1"
           d="m 757.23915,1013.0542 c 3.59352,1.1052 24.22812,2.6114 28.9437,3.0522 4.96751,0.4645 20.78639,1.4578 20.89214,-0.8571 -2.6494,-2.9384 2.81983,-2.4559 -13.5094,-3.5216 -8.97012,-0.5855 -27.69901,-3.1673 -36.32644,1.3265 z"
           id="path15-6-0-8-6-0-3"
           sodipodi:nodetypes="cscsc"
           inkscape:transform-center-x="6.5176799"
           inkscape:transform-center-y="1.9169647" />
        <path
           style="fill:#000000;fill-opacity:1;stroke:none;stroke-width:2.62742;stroke-linecap:round;stroke-dasharray:none;stroke-opacity:1"
           d="m 504.26766,642.12008 c -1.19667,6.02265 4.206,22.65381 5.81324,27.1089 1.69296,4.69316 4.93597,14.25589 5.35066,20.55537 4.02414,-6.13982 0.54677,-19.10027 -0.83503,-22.06287 -3.7997,-8.14667 -7.38407,-19.2262 -10.32887,-25.6014 z"
           id="path15-6-0-8-6-0-3-8"
           sodipodi:nodetypes="cscsc"
           inkscape:transform-center-x="4.2444003"
           inkscape:transform-center-y="-4.8245838" />
        <path
           style="fill:#000000;fill-opacity:1;stroke:none;stroke-width:2.62742;stroke-linecap:round;stroke-dasharray:none;stroke-opacity:1"
           d="m 382.19192,632.15668 c 3.10524,5.29734 18.18975,14.14279 22.35014,16.40601 4.38259,2.38428 13.15809,7.37964 17.65185,11.81376 -1.06922,-7.26277 -12.27649,-14.64264 -15.27712,-15.93979 -8.25122,-3.56697 -18.28929,-9.46959 -24.72487,-12.27998 z"
           id="path15-6-0-8-6-0-3-8-0"
           sodipodi:nodetypes="cscsc"
           inkscape:transform-center-x="7.0161879"
           inkscape:transform-center-y="-0.2205038" />
        <path
           style="fill:#000000;fill-opacity:1;stroke:none;stroke-width:2.62742;stroke-linecap:round;stroke-dasharray:none;stroke-opacity:1"
           d="m 370.23937,617.37982 c 3.87202,13.82783 16.89717,5.59079 31.26402,15.44752 5.58024,3.82846 9.51586,7.18795 15.63904,10.75943 -1.06922,-7.26277 -12.6035,-17.0499 -15.46881,-18.62354 -15.91908,-8.74277 -28.92845,-9.85298 -31.43425,-7.58341 z"
           id="path15-6-0-8-6-0-3-8-0-1"
           sodipodi:nodetypes="cscsc"
           inkscape:transform-center-x="7.0161879"
           inkscape:transform-center-y="-0.2205038" />
        <path
           style="fill:#000000;fill-opacity:1;stroke:none;stroke-width:2.62742;stroke-linecap:round;stroke-dasharray:none;stroke-opacity:1"
           d="m 781.91696,1024.4635 c 3.59352,1.1052 14.33298,0.9848 19.04856,1.4256 4.96751,0.4645 20.78639,1.4579 20.89214,-0.8571 -2.6494,-2.9384 2.41318,-2.8625 -13.91605,-3.9282 -8.97012,-0.5855 -22.14146,-0.7275 -26.02465,3.3597 z"
           id="path15-6-0-8-6-0-4"
           sodipodi:nodetypes="cscsc" />
        <path
           style="fill:#000000;fill-opacity:1;stroke:none;stroke-width:2.62742;stroke-linecap:round;stroke-dasharray:none;stroke-opacity:1"
           d="m 795.283,1034.4974 c 3.59352,1.1052 16.36623,3.018 21.08181,3.4588 4.96751,0.4645 20.78639,1.4579 20.89214,-0.8571 -2.6494,-2.9384 2.41318,-2.8625 -13.91605,-3.9282 -8.97012,-0.5855 -24.17471,-2.7607 -28.0579,1.3265 z"
           id="path15-6-0-8-6-0-2"
           sodipodi:nodetypes="cscsc" />
        <path
           style="fill:#000000;fill-opacity:1;stroke:none;stroke-width:2.62742;stroke-linecap:round;stroke-dasharray:none;stroke-opacity:1"
           d="m 710.77184,900.3575 c 3.59352,1.10514 12.02864,1.25585 16.74422,1.69672 4.96751,0.46444 21.87079,-0.711 21.97654,-3.02597 -2.6494,-2.93835 -7.21087,-0.69365 -23.5401,-1.7594 -8.97012,-0.58544 -11.29747,-0.99858 -15.18066,3.08865 z"
           id="path15-6-0-70"
           sodipodi:nodetypes="cscsc" />
        <path
           style="fill:#000000;fill-opacity:1;stroke:none;stroke-width:2.62742;stroke-linecap:round;stroke-dasharray:none;stroke-opacity:1"
           d="m 204.69465,874.14651 c 1.28994,-3.5314 -1.41697,-16.46182 -0.73223,-21.14821 0.72133,-4.93675 1.62098,-21.40889 -0.68539,-21.63451 -3.07175,2.49351 -1.99118,9.28893 -3.90201,25.54095 -1.04967,8.92771 1.4392,13.15191 5.31963,17.24177 z"
           id="path15-6-0-9"
           sodipodi:nodetypes="cscsc" />
        <path
           style="fill:#000000;fill-opacity:1;stroke:none;stroke-width:2.62742;stroke-linecap:round;stroke-dasharray:none;stroke-opacity:1"
           d="m 501.14688,1080.2396 c 3.24359,-1.901 3.96988,-3.9698 7.48247,-7.1467 3.70026,-3.3466 14.88471,-15.4729 13.25028,-17.1158 -3.95627,-0.034 -7.45109,5.8933 -19.27493,17.2059 -6.49518,6.2144 -1.8447,1.4321 -1.45782,7.0566 z"
           id="path15-6-0-59-8"
           sodipodi:nodetypes="cscsc" />
        <path
           style="fill:#000000;fill-opacity:1;stroke:none;stroke-width:2.62742;stroke-linecap:round;stroke-dasharray:none;stroke-opacity:1"
           d="m 502.49731,1096.4963 c 3.24359,-1.901 16.53704,-13.7064 20.04963,-16.8833 3.70026,-3.3466 9.73645,-14.433 8.10202,-16.0758 -3.95627,-0.034 -3.4024,6.0519 -15.22625,17.3645 -6.49517,6.2144 -13.31228,9.9701 -12.9254,15.5946 z"
           id="path15-6-0-8-67-0"
           sodipodi:nodetypes="cscsc" />
        <path
           style="fill:#000000;fill-opacity:1;stroke:none;stroke-width:2.62742;stroke-linecap:round;stroke-dasharray:none;stroke-opacity:1"
           d="m 508.44557,1108.5483 c 3.24358,-1.901 17.24984,-9.9297 19.54249,-15.4109 1.92519,-4.6028 16.53914,-17.6661 14.90471,-19.309 -3.95627,-0.034 -10.85648,4.8082 -19.42712,17.0697 -5.14997,7.3678 -15.40697,12.0257 -15.02008,17.6502 z"
           id="path15-6-0-86-1-2"
           sodipodi:nodetypes="cscsc" />
        <path
           style="fill:#000000;fill-opacity:1;stroke:none;stroke-width:2.62742;stroke-linecap:round;stroke-dasharray:none;stroke-opacity:1"
           d="m 535.87701,1132.9016 c 3.44308,-1.5099 18.28983,-7.851 21.20585,-13.0275 2.44866,-4.347 18.4859,-15.6175 17.05414,-17.4398 -3.92533,-0.495 -11.34299,3.5098 -21.28465,14.6885 -5.9738,6.7172 -16.70388,10.1475 -16.97534,15.7788 z"
           id="path15-6-0-86-1-2-4"
           sodipodi:nodetypes="cscsc" />
        <path
           style="fill:#000000;fill-opacity:1;stroke:none;stroke-width:2.62742;stroke-linecap:round;stroke-dasharray:none;stroke-opacity:1"
           d="m 546.15844,1145.8487 c 3.22012,-1.9405 17.1273,-10.1396 19.35286,-15.6484 1.86884,-4.626 16.32221,-17.8667 14.66782,-19.4896 -3.95639,0.014 -10.79694,4.9405 -19.21724,17.3057 -5.05962,7.4301 -15.25899,12.2129 -14.80344,17.8323 z"
           id="path15-6-0-86-1-2-4-2"
           sodipodi:nodetypes="cscsc" />
        <path
           style="fill:#000000;fill-opacity:1;stroke:none;stroke-width:2.62742;stroke-linecap:round;stroke-dasharray:none;stroke-opacity:1"
           d="m 517.17956,1119.106 c 2.54357,-0.3359 21.3794,-17.7201 24.89199,-20.897 3.70026,-3.3467 13.85378,-12.4701 12.21935,-14.113 -3.95627,-0.034 -11.96237,8.3717 -24.05284,19.399 -3.73798,3.4093 -12.77175,12.2599 -13.0585,15.611 z"
           id="path15-6-0-8-5-26-7"
           sodipodi:nodetypes="cscsc" />
        <path
           style="fill:#000000;fill-opacity:1;stroke:none;stroke-width:2.62742;stroke-linecap:round;stroke-dasharray:none;stroke-opacity:1"
           d="m 215.56276,888.962 c 1.28995,-3.5314 -0.71904,-16.83279 -0.0343,-21.51917 0.72134,-4.93676 0.97226,-21.9855 -1.33412,-22.21112 -3.07175,2.49351 -1.42676,11.48994 -3.3376,27.74197 -1.04967,8.92771 0.8256,11.89847 4.70603,15.98832 z"
           id="path15-6-0-8-70"
           sodipodi:nodetypes="cscsc" />
        <path
           style="fill:#000000;fill-opacity:1;stroke:none;stroke-width:2.62742;stroke-linecap:round;stroke-dasharray:none;stroke-opacity:1"
           d="m 232.93428,903.22613 c 0.74679,-3.68471 -4.74811,-11.20978 -4.77262,-15.94586 -0.0258,-4.98911 -0.27106,-28.62456 -2.58523,-28.50237 -2.66386,2.92523 -1.79749,13.68894 -1.25397,30.04388 0.29858,8.98425 4.1629,10.94145 8.61182,14.40435 z"
           id="path15-6-0-86-4"
           sodipodi:nodetypes="cscsc" />
        <path
           style="fill:#000000;fill-opacity:1;stroke:none;stroke-width:2.62742;stroke-linecap:round;stroke-dasharray:none;stroke-opacity:1"
           d="m 243.64645,917.29243 c 1.74709,-1.87887 -0.34622,-13.55586 0.33852,-18.24225 0.72133,-4.93675 0.9212,-23.61693 -1.38517,-23.84254 -3.07175,2.49351 -1.20994,12.20999 -3.5081,28.41178 -0.71052,5.00907 2.6416,10.90687 4.55475,13.67301 z"
           id="path15-6-0-8-5-6"
           sodipodi:nodetypes="cscsc" />
        <path
           style="fill:#000000;fill-opacity:1;stroke:none;stroke-width:2.76003;stroke-linecap:round;stroke-dasharray:none;stroke-opacity:1"
           d="m 255.11559,932.1161 c 1.28994,-3.89684 -1.15657,-12.15933 -0.47184,-17.33069 0.72134,-5.44765 1.25524,-27.38987 -1.05119,-27.63884 -3.07174,2.75156 -1.27217,9.39274 -3.183,27.32663 -1.04967,9.85161 0.8256,13.12981 4.70603,17.6429 z"
           id="path15-6-0-1-4"
           sodipodi:nodetypes="cscsc" />
        <path
           style="fill:#000000;fill-opacity:1;stroke:none;stroke-width:2.91794;stroke-linecap:round;stroke-dasharray:none;stroke-opacity:1"
           d="m 267.57888,951.037 c 2.7139,-5.93846 -0.51155,-19.24117 0.17319,-25.02125 0.72133,-6.08887 -0.83155,-29.40818 -3.13792,-29.68644 -3.07175,3.07543 0.20136,20.63719 -1.70923,40.68205 -1.04967,11.01122 0.79379,8.98133 4.67421,14.02566 z"
           id="path15-6-0-8-6-9"
           sodipodi:nodetypes="cscsc" />
        <path
           style="fill:#000000;fill-opacity:1;stroke:none;stroke-width:2.83062;stroke-linecap:round;stroke-dasharray:none;stroke-opacity:1"
           d="m 280.15828,960.66474 c 1.28994,-4.09876 -2.87234,-10.84471 -2.1876,-16.284 0.72133,-5.72989 0.90159,-36.0771 -1.40479,-36.33896 -3.07174,2.89412 -1.56916,13.48489 -3.47999,32.34798 -1.04967,10.36203 3.78632,20.44757 7.07238,20.27498 z"
           id="path15-6-0-5-5"
           sodipodi:nodetypes="cscsc" />
        <path
           style="fill:#000000;fill-opacity:1;stroke:none;stroke-width:3.04374;stroke-linecap:round;stroke-dasharray:none;stroke-opacity:1"
           d="m 291.34122,976.7835 c 1.28994,-4.73917 -3.07096,-14.92097 -2.38622,-21.21014 0.72134,-6.62516 1.28393,-38.66302 -1.02245,-38.96579 -3.07174,3.34631 -1.30091,16.77575 -3.21175,38.58611 -1.04967,11.98106 2.73999,16.10119 6.62042,21.58982 z"
           id="path15-6-0-8-9-6"
           sodipodi:nodetypes="cscsc" />
        <path
           style="fill:#000000;fill-opacity:1;stroke:none;stroke-width:2.62742;stroke-linecap:round;stroke-dasharray:none;stroke-opacity:1"
           d="m 303.71985,987.40526 c 1.28994,-3.5314 -3.16075,-16.70737 -2.47602,-21.39376 0.72134,-4.93675 -0.90471,-35.185 -3.21108,-35.41062 -3.07175,2.49351 0.73579,14.40791 -1.1751,30.65993 -1.04967,8.92771 2.98177,22.05459 6.8622,26.14445 z"
           id="path15-6-0-86-0-5"
           sodipodi:nodetypes="cscsc" />
        <path
           style="fill:#000000;fill-opacity:1;stroke:none;stroke-width:2.62742;stroke-linecap:round;stroke-dasharray:none;stroke-opacity:1"
           d="m 320.0694,1003.1261 c 0.769,-3.68015 -3.80911,-21.36717 -3.80503,-26.10331 0.004,-4.98918 -2.92407,-35.26358 -5.23893,-35.15538 -2.68147,2.9091 -0.96295,26.59298 -0.51817,42.95091 0.24434,8.98589 5.13418,14.81807 9.56213,18.30778 z"
           id="path15-6-0-8-5-8-3"
           sodipodi:nodetypes="cscsc" />
        <path
           style="fill:#000000;fill-opacity:1;stroke:none;stroke-width:3.0548;stroke-linecap:round;stroke-dasharray:none;stroke-opacity:1"
           d="m 333.12805,1012.4851 c 1.28995,-4.7737 -4.43536,-17.87751 -3.75062,-24.21247 0.72133,-6.6734 -1.04792,-37.20056 -3.3543,-37.50553 -3.07174,3.37068 0.47745,8.683 -1.31079,30.67103 -1.02749,12.63375 4.83746,33.21637 8.41571,31.04697 z"
           id="path15-6-0-1-7-4"
           sodipodi:nodetypes="cscsc" />
        <path
           style="fill:#000000;fill-opacity:1;stroke:none;stroke-width:3.10196;stroke-linecap:round;stroke-dasharray:none;stroke-opacity:1"
           d="m 344.84001,1022.9343 c 0.0557,-8.2279 -2.268,-29.25007 -3.30089,-37.04161 -0.90653,-6.83838 0.17079,-23.70234 -2.13559,-24.01682 -3.07174,3.47558 -3.93261,14.52741 -2.33381,37.22707 0.85953,12.20366 2.6294,19.17466 7.77029,23.83136 z"
           id="path15-6-0-8-6-4-6"
           sodipodi:nodetypes="cscsc" />
        <path
           style="fill:#000000;fill-opacity:1;stroke:none;stroke-width:2.62742;stroke-linecap:round;stroke-dasharray:none;stroke-opacity:1"
           d="m 713.96363,913.48519 c 3.59352,1.10514 20.56828,1.3914 25.28386,1.83227 4.96751,0.46444 19.15979,-1.11765 19.26554,-3.43262 -2.6494,-2.93835 -9.65076,0.2552 -25.97999,-0.81055 -8.97012,-0.58544 -14.68622,-1.67633 -18.56941,2.4109 z"
           id="path15-6-0-8-7"
           sodipodi:nodetypes="cscsc" />
        <path
           style="fill:#000000;fill-opacity:1;stroke:none;stroke-width:2.62742;stroke-linecap:round;stroke-dasharray:none;stroke-opacity:1"
           d="m 629.86072,923.3018 c 1.67017,0.51364 22.63022,10.21746 46.6581,11.07058 27.67035,0.98245 66.10697,-4.59448 68.63088,-4.35851 4.96751,0.46442 18.07539,1.86445 18.18114,-0.45052 -2.6494,-2.93835 -8.83747,-3.13357 -25.1667,-4.1993 -4.66624,-0.30455 -24.42905,4.39385 -47.80875,4.47503 -21.56416,0.0749 -58.63151,-8.49834 -60.49467,-6.53728 z"
           id="path15-6-0-86-5"
           sodipodi:nodetypes="csscssc" />
        <path
           style="fill:#000000;fill-opacity:1;stroke:none;stroke-width:2.62742;stroke-linecap:round;stroke-dasharray:none;stroke-opacity:1"
           d="m 622.75447,947.67785 c 1.67017,0.51364 20.46142,0.0512 44.4893,0.90434 27.67035,0.98245 49.97654,-2.15458 73.23958,0.65684 4.95313,0.5986 30.00378,5.52429 30.10953,3.20932 -2.6494,-2.93835 -5.44872,-3.81132 -19.88026,-6.36809 -4.60446,-0.81576 -29.04114,-2.98003 -52.41744,-3.38687 -26.85061,-0.4673 -64.73126,-1.72084 -75.54071,4.98446 z"
           id="path15-6-0-86-5-1"
           sodipodi:nodetypes="csscssc" />
        <path
           style="fill:#000000;fill-opacity:1;stroke:none;stroke-width:2.62742;stroke-linecap:round;stroke-dasharray:none;stroke-opacity:1"
           d="m 634.52174,968.11388 c 12.10751,-0.29966 26.42561,-5.50635 53.16449,-6.95756 27.6471,-1.5005 40.21695,0.96307 63.47999,3.77449 4.95313,0.5986 30.00378,5.52429 30.10953,3.20932 -2.6494,-2.93835 -18.32596,-7.60672 -32.7575,-10.16349 -4.60446,-0.81576 -14.13065,-1.76008 -37.50695,-2.16692 -26.85061,-0.4673 -69.33996,3.29451 -76.48956,12.30416 z"
           id="path15-6-0-86-5-1-8"
           sodipodi:nodetypes="csscssc" />
        <path
           style="fill:#000000;fill-opacity:1;stroke:none;stroke-width:2.62742;stroke-linecap:round;stroke-dasharray:none;stroke-opacity:1"
           d="m 644.99745,982.62538 c 7.36326,0.10699 26.29871,-3.56984 42.18495,-5.7376 11.95879,-1.63184 49.29879,-2.01903 72.56183,0.79239 4.95313,0.5986 27.69943,4.43989 27.80518,2.12492 -2.6494,-2.93835 -5.44872,-3.81132 -19.88026,-6.36809 -4.60446,-0.81576 -20.63705,-3.38668 -44.01335,-3.79352 -26.85061,-0.4673 -64.73126,1.66791 -78.65835,12.9819 z"
           id="path15-6-0-86-5-1-4"
           sodipodi:nodetypes="csscssc" />
        <path
           style="fill:#000000;fill-opacity:1;stroke:none;stroke-width:2.62742;stroke-linecap:round;stroke-dasharray:none;stroke-opacity:1"
           d="m 662.31969,1001.2008 c 6.27887,-0.8418 18.97037,-12.01271 55.06219,-10.34627 27.65832,1.27705 34.38831,1.77637 41.65646,2.69009 4.95021,0.62232 25.12398,1.05114 40.81797,2.93822 -2.6494,-2.93835 -3.00882,-3.54022 -17.44036,-6.09699 -4.60446,-0.81576 -37.03858,-5.96213 -60.41488,-6.36897 -26.85061,-0.4673 -58.22487,8.58095 -59.68138,17.18392 z"
           id="path15-6-0-86-5-1-84"
           sodipodi:nodetypes="csscssc" />
        <path
           style="fill:#000000;fill-opacity:1;stroke:none;stroke-width:5;stroke-linecap:round;stroke-dasharray:none;stroke-opacity:1"
           d="m 566.56019,645.03179 c 6.24725,22.37793 13.93625,12.69702 18.50937,50.29014 2.71791,22.34252 8.67509,36.08068 19.34958,41.75284 -5.00695,-25.44607 -3.51882,-40.18061 -14.41726,-68.73211 -6.10043,-15.98178 -13.14262,-20.30505 -23.44169,-23.31087 z"
           id="path15-6-4"
           sodipodi:nodetypes="cscsc" />
      </g>
    </g>
  </g>
</svg>
